<?xml version="1.0" standalone="no"?><!DOCTYPE svg PUBLIC "-//W3C//DTD SVG 1.1//EN" "http://www.w3.org/Graphics/SVG/1.1/DTD/svg11.dtd"><svg t="1753542192254" class="icon" viewBox="0 0 1024 1024" version="1.1" xmlns="http://www.w3.org/2000/svg" p-id="11704" xmlns:xlink="http://www.w3.org/1999/xlink" width="200" height="200"><path d="M515.84 40.96C253.184 40.96 38.4 255.744 38.4 518.4S253.184 995.84 515.84 995.84 993.28 781.056 993.28 518.4 778.496 40.96 515.84 40.96z m0 0" fill="#67BE61" p-id="11705"></path><path d="M821.504 434.944l-320 324.608c-16.64 16.64-35.84 21.504-57.344 21.504-21.504 0-40.704-4.864-54.784-21.504l-178.944-178.944c-30.976-30.976-30.976-76.288 0-107.52 30.976-30.976 76.288-30.976 107.52 0l124.16 124.16L714.24 327.424c30.976-30.976 76.288-30.976 107.52 0 30.72 30.976 30.72 76.288-0.256 107.52z m0 0" fill="#FFFFFF" p-id="11706"></path></svg>