<?xml version="1.0" standalone="no"?><!DOCTYPE svg PUBLIC "-//W3C//DTD SVG 1.1//EN" "http://www.w3.org/Graphics/SVG/1.1/DTD/svg11.dtd"><svg t="1749520471362" class="icon" viewBox="0 0 1024 1024" version="1.1" xmlns="http://www.w3.org/2000/svg" p-id="34913" xmlns:xlink="http://www.w3.org/1999/xlink" width="200" height="200"><path d="M512 512m-512 0a512 512 0 1 0 1024 0 512 512 0 1 0-1024 0Z" fill="#FC8848" p-id="34914"></path><path d="M634.396444 777.415111l5.688889-42.666667a241.948444 241.948444 0 0 0 100.266667 1.507556 78.392889 78.392889 0 0 0 49.692444-42.666667V386.474667a88.177778 88.177778 0 0 0-41.272888-53.589334 112.440889 112.440889 0 0 0-92.188445-13.596444 458.752 458.752 0 0 0-97.792 32.853333l-32.853333 64.597334h222.862222V460.8h-136.533333v55.125333h141.937777v38.4l-139.093333 5.376v104.561778l66.104889-28.871111-5.688889-45.340444 53.589333-11.008 39.822223 104.561777-65.905778 29.696-8.248889-37.376a898.275556 898.275556 0 0 1-174.734222 56.177778c-5.688889 0.369778-11.377778 0.568889-16.753778 0.568889a125.155556 125.155556 0 0 1-106.268444-42.183111 193.422222 193.422222 0 0 1-18.688-101.745778l88.917333 2.218667a96.028444 96.028444 0 0 0 10.666667 63.089778 65.422222 65.422222 0 0 0 57.144888 18.688v-115.655112l-137.528888-4.181333v-37.262222h139.832888l-1.507555-55.068445-43.121778-8.533333c-3.640889 5.688889-35.896889 54.442667-58.197333 54.442667h-0.995556c-23.239111-1.706667-26.851556-32.853333-26.88-33.223111l75.605334-93.297778-41.073778-4.295111-61.980445 73.016889-46.705777-41.272889a343.637333 343.637333 0 0 0 60.529777-74.695111 327.452444 327.452444 0 0 0 35.669334-87.921778l75.633777 30.236444-22.072888 42.666667a22.243556 22.243556 0 0 0 14.876444 3.584 69.859556 69.859556 0 0 0 9.955556-0.768 225.507556 225.507556 0 0 0 29.468444-10.183111 539.164444 539.164444 0 0 1 173.937778-43.064889 168.277333 168.277333 0 0 1 28.899555 2.360889 188.330667 188.330667 0 0 1 103.253334 54.272 125.866667 125.866667 0 0 1 38.456889 83.143111l0.739555 257.564444a139.633778 139.633778 0 0 1-76.8 105.870223 238.933333 238.933333 0 0 1-89.201778 14.222222 472.576 472.576 0 0 1-81.464889-7.281778z m-370.403555 4.067556L160 706.844444c1.479111-1.223111 145.777778-119.950222 137.642667-159.459555s-107.804444-89.116444-108.828445-89.6l46.705778-65.934222 0.256 0.142222a617.045333 617.045333 0 0 1 60.615111 46.734222c28.245333 24.917333 62.833778 61.354667 67.128889 93.354667s-22.983111 98.048-46.648889 147.911111c-25.6 54.044444-52.593778 100.835556-52.849778 101.290667v0.369777zM230.229333 301.454222a61.44 61.44 0 1 1 61.44 61.44 61.496889 61.496889 0 0 1-61.44-61.44z" fill="#FFFFFF" p-id="34915"></path></svg>