<?xml version="1.0" standalone="no"?><!DOCTYPE svg PUBLIC "-//W3C//DTD SVG 1.1//EN" "http://www.w3.org/Graphics/SVG/1.1/DTD/svg11.dtd"><svg t="1749520294133" class="icon" viewBox="0 0 1024 1024" version="1.1" xmlns="http://www.w3.org/2000/svg" p-id="17993" xmlns:xlink="http://www.w3.org/1999/xlink" width="200" height="200"><path d="M512 0c282.763636 0 512 229.236364 512 512s-229.236364 512-512 512S0 794.763636 0 512 229.236364 0 512 0zM256.372364 705.070545c-25.972364 2.327273-47.336727 12.381091-63.441455 31.883637-25.506909 30.999273-28.113455 65.163636-12.008727 101.469091h55.947636c-1.024-0.791273-1.582545-2.141091-1.861818-4.282182a265.309091 265.309091 0 0 1 3.351273-91.601455c3.025455-13.591273 6.749091-26.903273 18.013091-37.469091z m501.76 0c-26.577455 2.513455-48.593455 13.405091-64.791273 34.21091-23.831273 30.813091-25.786182 64.186182-10.193455 99.141818h55.714909c-1.024-0.884364-1.210182-2.606545-1.675636-6.330182a262.050909 262.050909 0 0 1-0.744727-64.232727c2.699636-22.295273 5.445818-44.683636 21.736727-62.789819z m-489.006546 0.465455c3.816727 3.723636 6.562909 7.959273 8.983273 12.474182 3.909818 7.447273 5.818182 15.453091 7.912727 23.412363 4.561455 17.221818 5.492364 34.909091 5.864727 52.689455a257.396364 257.396364 0 0 1-2.699636 41.332364c-0.186182 1.489455-0.512 2.373818-1.070545 2.932363h55.575272c16.430545-37.236364 13.312-71.912727-13.498181-103.144727-15.918545-18.478545-36.770909-28.020364-61.067637-29.696z m502.178909 0.465455c7.121455 5.911273 10.798545 13.963636 13.498182 22.481454 11.170909 35.653818 11.636364 72.005818 6.656 108.683636a17.780364 17.780364 0 0 1-0.558545 1.210182h54.784c8.843636-17.454545 11.915636-35.281455 9.495272-53.992727a90.158545 90.158545 0 0 0-23.412363-50.176c-17.826909-19.781818-46.545455-29.882182-60.462546-28.206545z m-257.536 67.118545c-6.981818 0.465455-14.056727-0.651636-21.085091 0.558545-7.493818 1.303273-9.355636 5.818182-5.026909 12.008728 6.516364 9.076364 13.032727 18.059636 19.642182 26.996363 3.304727 4.561455 9.122909 4.421818 12.474182-0.093091 6.516364-8.843636 12.846545-17.826909 19.316364-26.71709 4.654545-6.376727 2.885818-10.798545-4.980364-12.19491-6.749091-1.210182-13.498182-0.186182-20.340364-0.558545z m14.987637-555.287273h-3.723637v35.746909h5.585455c12.288 0 33.885091 0 44.218182 7.540364 1.908364 1.861818 5.678545 5.585455 5.678545 17.873455v12.194909l-55.482182 33.885091 17.873455 31.976727 37.608727-21.643637v39.563637l-55.482182 33.792 17.873455 31.976727 37.608727-21.643636v30.161454c0 7.447273-3.770182 21.597091-10.379636 28.16-17.826909 21.690182-46.08 37.608727-46.08 37.608728l17.92 32.023272c1.861818 0 35.700364-19.735273 55.482182-46.08 10.379636-14.149818 17.826909-33.885091 17.826909-51.712V281.786182c-0.930909-19.735273-6.562909-33.838545-16.896-46.08-19.781818-19.735273-51.712-19.735273-69.632-17.873455z m326.376727 111.941818h-219.136V493.381818c0 30.161455 23.505455 53.666909 53.573818 53.666909h111.941818c30.114909 0 53.620364-23.505455 53.620364-53.666909V329.774545zM476.997818 217.832727H185.483636v35.746909h127.953455v76.194909H171.287273v35.700364h137.309091c-14.103273 53.620364-57.390545 99.700364-137.309091 145.826909l17.873454 31.930182c49.896727-28.16 111.895273-69.538909 143.918546-133.538909 7.586909 16.011636 17.873455 31.976727 32.023272 47.988364 26.344727 30.161455 62.045091 57.344 111.895273 85.550545l17.873455-31.930182c-83.735273-44.218182-127.953455-90.298182-142.010182-143.918545h137.309091v-35.746909H349.090909V255.534545h127.906909v-37.701818z m343.365818 237.986909v37.655273a17.268364 17.268364 0 0 1-16.709818 17.873455h-38.818909V455.819636h55.528727z m-92.16 0v53.573819h-37.701818a17.268364 17.268364 0 0 1-17.826909-16.709819v-36.864h55.482182z m92.16-90.298181v53.620363h-55.528727V365.474909h55.528727z m-92.253091 0v53.573818h-55.482181V365.474909h55.482181zM706.56 217.832727h-35.700364v23.505455h-33.885091v35.793454h33.885091v28.16h35.700364v-30.161454h78.056727v30.161454h35.793455v-30.161454h35.700363v-35.653818h-35.700363V217.832727h-35.793455v23.505455H706.56v-23.505455z" fill="#FF002B" p-id="17994"></path><path d="M157.602909 556.916364l3.816727 0.093091h3.770182l0.279273 0.09309c4.654545 2.327273 9.309091 3.677091 13.777454 5.818182 10.938182 5.259636 19.316364 13.405091 27.275637 22.062546 7.307636 7.912727 14.149818 16.197818 21.271273 24.203636 12.753455 14.382545 26.903273 27.229091 40.587636 40.494546 3.537455 3.444364 7.773091 6.050909 11.496727 9.169454 3.770182 3.165091 7.866182 6.097455 11.729455 9.076364 6.190545 4.794182 13.405091 7.866182 20.340363 11.450182 8.890182 4.701091 18.525091 7.121455 28.020364 10.007272 18.432 5.585455 37.376 6.190545 56.413091 6.190546 82.944-0.093091 166.027636-0.093091 248.971636-0.093091 11.357091 0 22.760727-1.210182 33.838546-3.444364 13.405091-2.56 26.251636-7.307636 38.539636-13.218909 14.429091-6.935273 27.880727-15.499636 39.098182-26.810182 14.382545-14.289455 30.254545-26.996364 43.752727-42.216727 7.633455-8.610909 14.568727-17.780364 22.062546-26.437818 2.792727-3.258182 5.911273-6.283636 9.588363-8.797091 4.468364-3.025455 8.378182-6.935273 13.125818-9.728 11.962182-6.749091 24.203636-9.122909 37.562182-5.073455 12.288 3.816727 19.874909 12.194909 25.879273 23.412364 5.632 10.519273 9.448727 21.597091 11.869091 33.047273 1.536 7.912727 3.723636 15.825455 3.723636 24.064a18.804364 18.804364 0 0 0 0.605091 5.585454l0.930909 2.56v85.783273a104.727273 104.727273 0 0 1-78.894545 101.515636c7.912727-16.616727 10.658909-33.745455 8.331636-51.572363a90.112 90.112 0 0 0-23.412363-50.222546c-17.826909-19.781818-46.545455-29.835636-60.509091-28.16 7.168 5.911273 10.845091 13.963636 13.498181 22.434909 11.217455 35.700364 11.682909 72.052364 6.702546 108.730182-0.279273 2.001455-1.210182 2.141091-2.327273 2.094546l-1.070545-0.046546h-43.101091c-6.842182 0-6.749091 0-7.586909-6.981818a261.957818 261.957818 0 0 1-0.744728-64.232727c2.653091-22.248727 5.445818-44.637091 21.736728-62.743273-26.670545 2.466909-48.64 13.312-64.837818 34.210909-22.248727 28.672-25.413818 59.717818-13.032728 92.066909l3.118546 7.447273H343.877818c16.616727-37.422545 13.684364-72.238545-13.312-103.610182-15.918545-18.478545-36.770909-28.020364-61.067636-29.649454 3.909818 3.723636 6.562909 7.912727 8.983273 12.474181 3.863273 7.400727 5.818182 15.453091 7.912727 23.365819 4.561455 17.314909 5.492364 35.048727 5.864727 52.689454 0.279273 13.824-0.837818 27.554909-2.699636 41.332364-0.465455 3.258182-1.629091 3.723636-4.514909 3.723636-14.615273-0.093091-29.323636-0.186182-43.938909 0.093091-4.049455 0.093091-5.352727-1.117091-5.818182-5.12a265.216 265.216 0 0 1 3.304727-91.601455c3.072-13.591273 6.842182-26.903273 18.059636-37.422545-25.972364 2.187636-47.336727 12.381091-63.441454 31.883636-25.041455 30.301091-28.113455 63.767273-13.032727 99.188364a104.820364 104.820364 0 0 1-78.75491-88.808727l-0.698181-8.238546v-62.417454c0-8.238545 0.093091-16.337455 0.186181-24.576 1.024-7.447273 1.768727-14.801455 2.97891-22.109091 1.908364-12.288 4.514909-24.482909 9.122909-36.165818 2.606545-6.469818 5.678545-12.660364 8.843636-18.850909 2.094545 0.186182 1.722182-2.048 2.746182-2.932364 2.932364-2.699636 6.050909-5.12 9.309091-7.307636l5.12-3.072 4.328727-2.141091a33.419636 33.419636 0 0 1 14.242909-2.56z m376.366546 216.669091c-6.656-1.117091-13.405091-0.186182-20.247273-0.558546-6.795636 0.465455-14.056727-0.651636-21.085091 0.558546-7.540364 1.396364-9.402182 5.818182-4.980364 12.008727 6.516364 9.076364 13.032727 18.059636 19.595637 26.996363 3.351273 4.561455 9.309091 4.468364 12.520727-0.09309 6.469818-8.843636 12.846545-17.826909 19.316364-26.717091 4.514909-6.283636 2.792727-10.705455-5.12-12.194909z" fill="#040000" p-id="17995"></path></svg>