<?xml version="1.0" standalone="no"?><!DOCTYPE svg PUBLIC "-//W3C//DTD SVG 1.1//EN" "http://www.w3.org/Graphics/SVG/1.1/DTD/svg11.dtd"><svg t="1753883397189" class="icon" viewBox="0 0 1024 1024" version="1.1" xmlns="http://www.w3.org/2000/svg" p-id="7887" xmlns:xlink="http://www.w3.org/1999/xlink" width="200" height="200"><path d="M996.169143 56.502857a128.731429 128.731429 0 0 0-28.891429-28.891428A136.557714 136.557714 0 0 0 885.394286 0H138.459429c-30.72 0-59.172571 10.459429-82.285715 27.648-10.898286 7.972571-20.918857 17.590857-28.891428 28.891429A138.605714 138.605714 0 0 0 0 138.605714v746.971429c0 30.72 10.459429 59.172571 27.648 81.92 7.972571 10.825143 17.590857 20.845714 28.891429 28.891428 23.113143 17.188571 51.163429 27.611429 81.883428 27.611429H885.394286c30.72 0 59.172571-10.459429 81.92-27.648 10.825143-7.972571 20.845714-17.590857 28.854857-28.891429 17.188571-23.113143 27.611429-51.163429 27.611428-81.883428V138.605714a138.971429 138.971429 0 0 0-27.611428-82.102857z" fill="#FF2742" p-id="7888"></path><path d="M660.553143 383.085714v57.965715h-37.888v189.184h62.244571v57.344h-215.186285l29.074285-57.526858h61.44v-188.196571h-38.290285v-58.770286h138.605714z m-191.853714 243.273143c-10.642286 20.845714-19.017143 38.070857-28.269715 54.674286-1.645714 3.072-6.765714 5.924571-10.422857 6.144-27.867429 0.402286-55.917714 0.182857-87.844571 0.182857 12.068571-24.137143 22.125714-43.812571 30.902857-61.001143h95.634286z m-244.662858-266.788571c0 90.916571-0.219429 199.826286-0.621714 290.742857 0.548571 34.998857-22.235429 36.937143-24.758857 37.046857h-36.498286l-38.070857-50.358857h39.936V359.570286h59.977143z m580.681143 0l0.365715 24.576h47.725714s44.032-1.024 44.251428 41.764571c0.182857 12.690286 0.402286 54.235429 0.402286 68.169143 50.578286-0.219429 72.045714 10.020571 72.045714 45.238857v104.850286c0 39.277714-34.669714 42.020571-41.289142 42.166857h-56.32l-23.186286-49.737143 59.977143 0.182857s0.658286-45.019429 0-60.598857c-0.365714-13.092571-7.533714-21.504-20.845715-21.686857-26.624-0.621714-53.467429-0.219429-82.724571-0.219429v132.278858H745.691429v-131.474286h-59.977143v-61.220572h58.331428v-51.785142h-38.692571v-57.965715h39.314286v-24.539428h59.977142z m-683.52 83.931428v1.426286c0.109714 15.286857-0.438857 150.820571-45.019428 213.357714-12.690286-22.089143-24.137143-42.569143-35.84-63.049143 0-2.450286 22.930286-72.484571 17.810285-151.734857h63.085715z m204.8-0.402285c-4.534857 58.770286 14.518857 137.179429 14.518857 137.179428s-17.408 38.509714-29.915428 74.752c-28.635429-25.197714-44.214857-100.352-43.812572-211.931428h59.172572z m152.722286-83.529143c-14.738286 29.257143-31.085714 57.929143-41.545143 85.796571 24.356571-1.462857 46.445714-2.669714 72.484572-4.096-13.933714 27.830857-26.221714 52.589714-38.509715 77.385143l-4.900571 10.020571c-12.909714 25.819429-12.909714 26.002286 15.725714 26.624 3.108571 0 5.961143 0.402286 11.483429 1.024-7.972571 15.762286-15.140571 30.098286-22.710857 44.251429-1.243429 2.230857-4.717714 4.900571-6.948572 4.900571-21.101714 0-42.422857 0.621714-63.488-1.645714-15.140571-1.645714-21.101714-13.312-15.140571-27.648 7.168-17.810286 15.725714-35.218286 23.734857-52.809143 2.669714-6.144 5.522286-12.068571 9.435428-21.101714-11.702857 0-20.297143 0.219429-28.891428 0-24.758857-1.024-33.170286-12.288-22.930286-35.218286 16.384-36.242286 34.816-71.862857 52.224-107.52h59.977143z m366.518857 82.285714h-40.118857l0.402286 52.041143h39.716571v-52.041143z m121.234286-53.650286a5.485714 5.485714 0 0 1 1.426286 1.645715c19.236571 20.260571 4.096 53.869714-23.771429 53.869714h-31.926857v-30.537143c0-11.044571 5.522286-21.284571 14.957714-27.209143 10.605714-6.765714 25.380571-11.044571 39.314286 2.230857z" fill="#FFFFFF" p-id="7889"></path></svg>