<?xml version="1.0" standalone="no"?><!DOCTYPE svg PUBLIC "-//W3C//DTD SVG 1.1//EN" "http://www.w3.org/Graphics/SVG/1.1/DTD/svg11.dtd"><svg t="1749523230917" class="icon" viewBox="0 0 1024 1024" version="1.1" xmlns="http://www.w3.org/2000/svg" p-id="49878" xmlns:xlink="http://www.w3.org/1999/xlink" width="200" height="200"><path d="M619.8 464.32h106.44v36.6h-106.44v-36.6z m0 89.8h106.44v35.48h-106.44v-35.48z m159.64 0h104.24v35.48h-104.24v-35.48z m0 0" p-id="49879" fill="#f4ea2a"></path><path d="M512 0C229.24 0 0 229.2 0 512c0 282.76 229.24 512 512 512s512-229.2 512-512S794.76 0 512 0zM187.24 335.68a26.6 26.6 0 0 1 26.64-26.6c14.72 0 26.6 11.92 26.6 26.6v29.96c0 14.72-11.92 26.64-26.6 26.64-14.72 0-26.64-11.92-26.64-26.64v-29.96z m57.64 352.64c0 9.52-5.08 18.32-13.32 23.04a26.636 26.636 0 0 1-26.64 0 26.592 26.592 0 0 1-13.32-23.04v-90.92a26.6 26.6 0 0 1 26.64-26.6c14.72 0 26.64 11.92 26.64 26.6v90.92z m158.72 0c0 9.52-5.08 18.32-13.32 23.04a26.636 26.636 0 0 1-26.64 0 26.592 26.592 0 0 1-13.32-23.04v-90.92c0-9.52 5.08-18.28 13.32-23.04a26.636 26.636 0 0 1 39.96 23.04v90.92z m79.88 0c0 9.52-5.08 18.32-13.32 23.04a26.636 26.636 0 0 1-26.64 0 26.592 26.592 0 0 1-13.32-23.04v-180.8H324.76v180.8c0 9.52-5.08 18.32-13.32 23.04a26.636 26.636 0 0 1-26.64 0 26.592 26.592 0 0 1-13.32-23.04v-180.8H165.04v180.8c0 9.52-5.08 18.32-13.32 23.04a26.636 26.636 0 0 1-26.64 0 26.592 26.592 0 0 1-13.32-23.04v-332.8a26.636 26.636 0 1 1 53.28 0v98.8h106.28v-8.92c0-9.52 5.08-18.32 13.32-23.04a26.636 26.636 0 0 1 39.96 23.04v8.88h105.48V382.24h-140.8c-9.52 0-18.32-5.08-23.04-13.32a26.636 26.636 0 0 1 23.04-39.96h167.48c7.08 0 13.84 2.8 18.84 7.8a26.608 26.608 0 0 1 7.8 18.84l0.08 332.72z m81.92-352.64c0-7.04 2.8-13.84 7.8-18.84a26.608 26.608 0 0 1 18.84-7.8h317.44c7.08 0 13.84 2.8 18.84 7.8s7.8 11.76 7.8 18.84v29.96c0 14.72-11.92 26.64-26.64 26.64s-26.64-11.92-26.64-26.64v-3.32h-264.2v3.32c0 14.72-11.92 26.64-26.64 26.64s-26.64-11.92-26.64-26.64l0.04-29.96z m26.64 379.28c-14.72 0-26.64-11.92-26.64-26.64s11.92-26.64 26.64-26.64 26.64 11.92 26.64 26.64c-0.04 14.72-11.96 26.64-26.64 26.64z m107.52 0c-14.72 0-26.64-11.92-26.64-26.64s11.92-26.64 26.64-26.64 26.64 11.92 26.64 26.64c-0.04 14.72-11.96 26.64-26.64 26.64z m105.36 0c-14.72 0-26.64-11.92-26.64-26.64s11.92-26.64 26.64-26.64 26.64 11.92 26.64 26.64c-0.04 14.72-11.96 26.64-26.64 26.64z m105.36 0c-14.72 0-26.64-11.92-26.64-26.64s11.92-26.64 26.64-26.64 26.64 11.92 26.64 26.64c-0.04 14.72-11.96 26.64-26.64 26.64z m0-70.96c-2.56 0-5.16-0.4-7.64-1.12h-309.52c-7.08 0-13.84-2.8-18.84-7.8a26.608 26.608 0 0 1-7.8-18.84v-178.56c0-7.04 2.8-13.84 7.8-18.84a26.4 26.4 0 0 1 18.84-7.76h145a26.62 26.62 0 0 1 29.44 0h142.76c7.08 0 13.84 2.8 18.84 7.8a26.608 26.608 0 0 1 7.8 18.84v179.64c0 7.08-2.8 13.84-7.8 18.84a26.772 26.772 0 0 1-18.88 7.8z m0 0" p-id="49880" fill="#f4ea2a"></path><path d="M779.44 464.32h104.24v36.6h-104.24z" p-id="49881" fill="#f4ea2a"></path></svg>