<?xml version="1.0" standalone="no"?><!DOCTYPE svg PUBLIC "-//W3C//DTD SVG 1.1//EN" "http://www.w3.org/Graphics/SVG/1.1/DTD/svg11.dtd"><svg t="1749520196305" class="icon" viewBox="0 0 1024 1024" version="1.1" xmlns="http://www.w3.org/2000/svg" p-id="13126" xmlns:xlink="http://www.w3.org/1999/xlink" width="200" height="200"><path d="M512 512m-512 0a512 512 0 1 0 1024 0 512 512 0 1 0-1024 0Z" fill="#DD2727" p-id="13127"></path><path d="M562.112 271.424c87.04 0 154.56 19.584 200.32 60.928 45.696 39.232 69.568 102.4 69.568 180.736-2.176 78.336-26.112 141.44-69.632 180.672-45.696 39.232-113.28 60.992-200.32 60.992H459.84V271.36h102.336z m-156.8-2.176v313.472l-0.256 11.2c-2.112 51.2-19.328 90.88-49.792 117.248-32.64 28.288-84.928 41.408-152.32 41.408H192v-69.76h8.704l9.984-0.064a200.32 200.32 0 0 0 48.768-6.4c15.296-4.416 30.464-10.88 41.344-19.584 8.768-6.592 15.296-17.472 19.584-28.352 4.416-13.056 6.592-34.816 6.592-67.52V269.248h78.336z m165.44 74.048h-34.816v341.76h34.816l11.968-0.192c55.04-1.92 96.896-16.768 127.36-41.152 30.528-28.288 45.76-71.872 45.76-128.448 0-56.576-15.232-102.336-45.696-128.448-32.64-30.464-78.4-43.52-139.392-43.52z" fill="#FFFFFF" p-id="13128"></path></svg>