<?xml version="1.0" standalone="no"?><!DOCTYPE svg PUBLIC "-//W3C//DTD SVG 1.1//EN" "http://www.w3.org/Graphics/SVG/1.1/DTD/svg11.dtd"><svg t="1745132805505" class="icon" viewBox="0 0 1024 1024" version="1.1" xmlns="http://www.w3.org/2000/svg" p-id="1498" xmlns:xlink="http://www.w3.org/1999/xlink" width="200" height="200"><path d="M167.282287 1016.329588A326.844777 326.844777 0 0 1 171.117493 902.977944a81.817728 81.817728 0 0 1 22.158968-46.448606 109.942572 109.942572 0 0 0-77.982522 39.630462 112.073242 112.073242 0 0 0-14.91469 125.283396H171.117493v-5.113608zM512.024692 940.90387a176.84561 176.84561 0 0 0-25.994174 0c-9.374948 0-11.505618 6.818144-5.965876 14.488556s15.766958 22.585102 23.863504 33.664586a9.374948 9.374948 0 0 0 15.766958 0l23.863504-33.238452c5.539742-8.096546 3.409072-13.210154-6.39201-14.91469a163.635456 163.635456 0 0 0-25.141906 0z m276.560966 72.868914a308.521015 308.521015 0 0 1 0-79.260924 133.806076 133.806076 0 0 1 26.846442-77.982522 114.203912 114.203912 0 0 0-92.897212 164.913858h69.033708s0-2.982938-2.13067-7.670412z m-553.974199 7.670412h66.903038a111.647108 111.647108 0 0 0-16.619226-127.8402 102.698294 102.698294 0 0 0-75.425718-36.647524 56.249688 56.249688 0 0 1 11.079484 15.340824 136.36288 136.36288 0 0 1 9.801082 28.977112 278.265501 278.265501 0 0 1 7.244278 65.198502 294.884727 294.884727 0 0 1-3.409072 51.13608v3.409072z m622.155639 0h67.755306a110.368706 110.368706 0 0 0 11.931752-66.476904 112.499376 112.499376 0 0 0-28.977112-62.215564 105.255098 105.255098 0 0 0-74.999584-34.942988 53.692884 53.692884 0 0 1 16.619226 27.69871 305.964211 305.964211 0 0 1 8.52268 134.658344z m0 0" fill="#FFFFFF" p-id="1499"></path><path d="M1020.402553 776.416146a173.862672 173.862672 0 0 0-4.687474-29.829379 147.868498 147.868498 0 0 0-14.91469-42.6134 53.692884 53.692884 0 0 0-31.96005-28.977112 56.249688 56.249688 0 0 0-46.448605 6.39201c-5.965876 3.409072-10.65335 8.096546-16.193092 11.931752a49.431544 49.431544 0 0 0-11.931752 11.079484c-9.374948 10.65335-17.897628 21.732834-27.272576 32.386184-16.619226 19.17603-36.22139 34.942988-54.119018 52.414481a170.4536 170.4536 0 0 1-48.153142 33.238452 191.334166 191.334166 0 0 1-47.727008 16.193092 202.41365 202.41365 0 0 1-42.6134 4.26134H367.139133a239.487308 239.487308 0 0 1-68.18144-5.539742 242.470246 242.470246 0 0 1-34.942988-12.357886 183.23762 183.23762 0 0 1-26.846442-14.062422l-14.488556-11.079484c-4.687474-3.835206-9.801082-7.244278-14.062422-11.505618-17.04536-16.193092-34.516854-32.386184-50.283812-49.857677-8.948814-10.227216-17.471494-20.454432-26.420308-30.255514a117.18685 117.18685 0 0 0-33.664586-27.272576c-5.539742-2.556804-11.505618-4.26134-16.619226-7.244278h-10.227216a42.6134 42.6134 0 0 0-23.011236 5.965876 85.2268 85.2268 0 0 0-17.897628 12.78402s0 3.835206-3.409072 3.409072a232.24303 232.24303 0 0 0-10.65335 23.43737 203.265918 203.265918 0 0 0-11.505618 44.317936c0 8.948814 0 18.323762-3.409072 27.272575s0 20.454432 0 30.681648v77.130254a127.8402 127.8402 0 0 0 98.436954 120.169788A111.220974 111.220974 0 0 1 115.720073 896.1598a106.959634 106.959634 0 0 1 78.408656-39.630462A85.2268 85.2268 0 0 0 171.117493 902.977944a326.418643 326.418643 0 0 0-3.835206 113.351644c0 4.687474 2.13067 6.39201 7.244278 6.39201h54.545152c3.835206 0 5.113608 0 5.539742-4.26134a294.884727 294.884727 0 0 0 3.409072-51.13608 278.265501 278.265501 0 0 0-7.244278-65.198502 127.8402 127.8402 0 0 0-9.801082-28.977112 58.380358 58.380358 0 0 0-11.079484-15.766958 104.828964 104.828964 0 0 1 75.425718 38.778194 112.073242 112.073242 0 0 1 16.619226 127.8402h420.594257a112.92551 112.92551 0 0 1 12.357886-123.57886 110.368706 110.368706 0 0 1 80.113192-42.6134 133.379942 133.379942 0 0 0-26.846442 77.556388 311.503953 311.503953 0 0 0 0 79.687058c0 8.52268 0 8.52268 9.374948 8.52268H852.931892c2.13067 0 3.835206 0 4.26134-2.556804a306.390345 306.390345 0 0 0-8.096546-134.658344 59.65876 59.65876 0 0 0-16.619226-27.69871 106.107366 106.107366 0 0 1 74.57345 34.942988 113.777778 113.777778 0 0 1 18.749896 127.8402A127.8402 127.8402 0 0 0 1023.385491 892.750728v-106.107366a21.732834 21.732834 0 0 1 0-10.227216z m-476.843945 180.254682c-8.096546 10.65335-15.766958 22.158968-23.863504 32.812318a9.374948 9.374948 0 0 1-15.766958 0l-23.863504-33.664586c-5.539742-7.670412-3.409072-13.210154 5.965876-14.91469s17.471494 0 25.994174 0a245.453184 245.453184 0 0 1 25.141906 0q14.91469 2.982938 6.39201 15.340824z m0 0" p-id="1500"></path><path d="M714.864476 555.252601h42.6134v-60.084894h-63.9201v40.48273a20.454432 20.454432 0 0 0 21.3067 21.3067z m42.6134-164.913858h-63.067832v60.511028h61.78943z m103.976696 105.255098h-62.641698V555.252601h42.6134a19.602164 19.602164 0 0 0 20.454432-20.454432v-42.6134z m0 0" fill="#DA0B06" p-id="1501"></path><path d="M892.562354 1.278402H128.504093a127.8402 127.8402 0 0 0-127.8402 127.8402v660.507698c0-7.670412 0-18.323762 3.409072-27.272575a230.11236 230.11236 0 0 1 11.505618-44.74407c3.409072-8.096546 6.818144-15.766958 10.65335-23.43737 2.982938 0 2.13067-2.556804 3.835206-3.835206a108.66417 108.66417 0 0 1 17.471494-12.78402 42.6134 42.6134 0 0 1 23.011236-5.539742h10.227216c5.539742 2.982938 11.505618 4.687474 16.619226 7.244278a110.368706 110.368706 0 0 1 33.664586 27.272576c9.374948 9.801082 17.471494 20.028298 26.420308 30.255514 15.766958 17.471494 33.238452 33.238452 50.283812 49.857677 4.26134 4.26134 9.801082 7.670412 14.062422 11.505618l14.488556 11.079484a149.573034 149.573034 0 0 0 25.56804 14.062422 158.521848 158.521848 0 0 0 34.516854 12.357886 225.85102 225.85102 0 0 0 69.885976 7.670412h308.094881a227.555556 227.555556 0 0 0 42.6134-4.26134 191.334166 191.334166 0 0 0 47.727008-16.193092 164.913858 164.913858 0 0 0 48.153142-33.238452c17.897628-17.897628 37.925926-33.664586 54.119018-52.414481 9.374948-10.65335 18.323762-22.158968 27.272576-32.812318a71.164378 71.164378 0 0 1 11.931752-10.65335c5.539742-3.835206 10.227216-8.52268 16.193092-11.931752a56.249688 56.249688 0 0 1 46.448605-6.39201 54.119018 54.119018 0 0 1 32.386184 28.977112 155.965044 155.965044 0 0 1 14.488556 42.6134 140.198086 140.198086 0 0 1 4.687474 29.829379 31.107782 31.107782 0 0 0 0 10.65335V129.118602a127.8402 127.8402 0 0 0-127.840199-127.8402z m-426.134 596.587599a380.111527 380.111527 0 0 1-163.209321-152.982106A378.833125 378.833125 0 0 1 139.583577 597.866001l-20.454432-36.647524 23.43737-13.636288a400.565959 400.565959 0 0 0 91.61881-73.295048 188.351228 188.351228 0 0 0 42.6134-76.70412H128.504093c-4.687474 0-5.965876 0-5.965876-5.965876v-30.255514-5.539742h158.947982V263.776945H137.452907v-42.613399h325.992509c4.687474 0 5.965876 0 5.965876 6.39201v30.255513c0 10.227216 0 5.539742-5.539742 5.539742H330.491609c-6.39201 0-6.39201 0-6.39201 6.39201v75.425718c0 4.687474 0 5.965876 5.965876 5.965876h155.965043v39.204328l-2.982938 2.556804H329.213207v7.244278a199.004578 199.004578 0 0 0 55.823554 87.783604 465.338327 465.338327 0 0 0 97.584685 70.31211h2.556804c-6.39201 11.931752-13.210154 23.863504-20.454432 36.647524z m123.152726-34.942988c-13.636288 11.931752-28.977112 22.158968-42.6134 32.812318l-3.835206 2.13067-9.801082-17.04536c-2.982938-5.113608-5.539742-10.227216-8.52268-14.91469s0-4.687474 0-6.818144a209.657928 209.657928 0 0 0 42.6134-34.516854 59.65876 59.65876 0 0 0 17.471494-42.6134v-30.681648l-42.6134 25.56804-21.3067-35.795256 26.420308-16.193092 34.942988-20.454432a6.39201 6.39201 0 0 0 3.409072-4.687474v-42.6134l-42.6134 25.141906-2.982938-3.835206-16.619226-27.69871v-6.39201l57.101956-33.664586a6.818144 6.818144 0 0 0 3.835206-6.818144 107.811902 107.811902 0 0 0 0-11.931752 22.585102 22.585102 0 0 0-20.880566-24.289638 336.645859 336.645859 0 0 0-36.22139-2.982938c-3.835206 0-5.539742 0-5.539742-5.113608v-35.369121a132.953808 132.953808 0 0 1 68.18144 9.801082 58.380358 58.380358 0 0 1 34.516854 51.562213V474.713275a109.090304 109.090304 0 0 1-39.204328 89.914274z m313.634624-204.118186v178.124012A61.78943 61.78943 0 0 1 840.574006 597.866001h-127.8402a61.363296 61.363296 0 0 1-62.215564-62.215564V349.856013h251.41906z m-4.687474-68.607574h-34.942988v26.846442c0 8.52268 0 6.818144-6.39201 6.818144h-35.795256v-33.664586h-85.2268c-3.835206 0-5.539742 0-5.113608 5.539742s0 15.766958 0 23.863504 0 4.26134-3.835206 3.835206h-34.09072c-3.835206 0-4.26134 0-4.26134-4.687474v-29.403246h-38.778194v-42.613399h38.778194V227.129422c0-6.39201 0-6.39201 6.39201-6.39201h35.795256v26.420308h88.209738V227.129422c0-6.39201 0-6.39201 6.39201-6.39201h29.403246c4.687474 0 6.818144 0 6.39201 5.965876s0 13.210154 0 20.880566h39.630462v37.073657c0 9.801082 0 5.113608-5.113608 4.687474z m0 0" fill="#DA0B06" p-id="1502"></path><path d="M861.454572 394.600083c0-3.409072-2.556804-2.982938-4.687474-2.982938h-57.954224v60.511028h62.641698z m0 0" fill="#DA0B06" p-id="1503"></path><path d="M486.030518 351.134415v39.204328H329.639341a36.22139 36.22139 0 0 0 0 7.244278 200.709114 200.709114 0 0 0 55.39742 87.783604 481.531419 481.531419 0 0 0 97.584685 70.31211h2.982938l-20.880566 36.22139a376.702455 376.702455 0 0 1-161.504785-147.01623A375.424053 375.424053 0 0 1 139.583577 597.866001l-20.454432-36.22139 23.43737-14.062422a389.486475 389.486475 0 0 0 91.61881-73.295048 187.072826 187.072826 0 0 0 42.6134-76.277986v-2.556804H128.504093c-4.687474 0-5.965876 0-5.965876-5.965876v-30.681648-5.113608h158.947982V263.776945H137.452907v-42.613399h325.992509c4.687474 0 5.965876 0 5.965876 5.965876v30.681647c0 10.227216 0 5.539742-5.539742 5.539742H330.491609c-6.39201 0-6.39201 0-6.39201 6.39201v74.999584c0 5.113608 0 6.39201 5.965876 6.39201h155.965043z m165.766126 0h251.41906v185.794424A61.78943 61.78943 0 0 1 840.574006 597.866001h-127.8402a61.363296 61.363296 0 0 1-62.215564-62.215564z m147.01623 102.27216h62.641698V394.600083c0-3.409072-2.556804-2.982938-4.687474-2.982938h-57.954224z m-104.40283-61.363296v60.511028h61.78943V392.043279z m167.044528 103.550562h-62.641698V555.252601h42.6134a19.602164 19.602164 0 0 0 20.454432-20.454432v-42.6134z m-167.470662 0v40.48273a20.028298 20.028298 0 0 0 20.880566 21.3067h42.6134v-62.215564z m-150.425302-19.602164l-21.732834-36.22139 26.846442-15.766958 34.516854-20.880566a6.39201 6.39201 0 0 0 3.409072-4.687474v-40.056596l-42.6134 25.141906a36.647524 36.647524 0 0 0-2.982938-4.26134c-5.539742-9.374948-10.65335-18.323762-16.619226-27.69871 0-2.982938 0-4.687474 2.13067-6.39201l56.675822-33.664586a5.965876 5.965876 0 0 0 3.835206-6.818144v-14.488556a23.43737 23.43737 0 0 0-21.3067-24.289638 337.071993 337.071993 0 0 0-36.22139-2.556804c-3.835206 0-5.539742 0-5.539742-5.113608v-35.795255a134.23221 134.23221 0 0 1 68.18144 9.801082 58.380358 58.380358 0 0 1 34.516854 51.562213v188.777362a109.090304 109.090304 0 0 1-39.204328 90.340408c-13.636288 11.931752-28.550978 21.732834-42.6134 32.812318l-4.26134 2.13067-9.801082-17.471494-8.52268-14.488556v-6.818144a209.657928 209.657928 0 0 0 42.6134-34.516854 62.641698 62.641698 0 0 0 17.897628-42.6134v-30.255514l-42.6134 25.56804z m319.6005-227.981689h40.056596V286.788181c0 3.835206 0 4.687474-5.113608 4.687474h-34.942988v26.846442c0 8.52268 0 6.818144-6.39201 6.39201h-35.795256v-34.516854H738.301846c-3.835206 0-5.539742 0-5.113608 5.539742s0 15.766958 0 23.863504 0 3.835206-3.835206 3.835206h-34.09072c-3.835206 0-4.26134 0-4.26134-4.687474v-29.403246h-38.778194v-42.613399h38.778194V227.129422c0-6.39201 0-6.39201 6.39201-6.39201h35.795256v26.420308h88.209738V227.129422c0-6.39201 0-6.39201 6.39201-6.39201h29.403246c4.687474 0 6.818144 0 6.39201 6.39201s0 13.210154 0 20.880566z m0 0" fill="#FFFFFF" p-id="1504"></path></svg>