<?xml version="1.0" standalone="no"?><!DOCTYPE svg PUBLIC "-//W3C//DTD SVG 1.1//EN" "http://www.w3.org/Graphics/SVG/1.1/DTD/svg11.dtd"><svg t="1749520757945" class="icon" viewBox="0 0 1024 1024" version="1.1" xmlns="http://www.w3.org/2000/svg" p-id="41492" xmlns:xlink="http://www.w3.org/1999/xlink" width="200" height="200"><path d="M512 0.512C229.546667 0.512 0.512 229.546667 0.512 512 0.512 794.453333 229.546667 1023.488 512 1023.488c282.453333 0 511.488-229.034667 511.488-511.488C1023.488 229.546667 794.453333 0.512 512 0.512z" fill="#F40009" p-id="41493"></path><path d="M315.008 230.144c7.722667-5.461333 15.232-11.392 23.424-16.213333 0.384 79.957333 0.256 159.914667 0.085333 239.872-35.626667-25.685333-70.869333-51.882667-106.368-77.781334-20.053333-14.976-40.533333-29.354667-60.330666-44.629333 47.616-33.834667 95.445333-67.456 143.189333-101.248M267.477333 288.853333c0.170667 5.674667-1.28 11.136-2.133333 16.682667-1.237333 7.338667 6.101333 15.189333 0.554667 21.845333-4.821333 8.618667-9.813333 17.066667-14.549334 25.728-1.877333 3.413333-2.773333 8.405333 0.341334 11.392 2.816 4.010667 7.936 1.877333 11.989333 2.730667 3.2 1.450667 6.058667 3.84 9.6 4.437333 3.413333 0.426667 6.442667-1.92 9.813333-2.005333 3.797333 0.426667 7.466667 1.706667 11.306667 0.938667 2.901333-0.554667 5.248-2.474667 7.978667-3.413334 3.498667-0.64 7.168 0.469333 10.581333-0.64a10.581333 10.581333 0 0 0 2.218667-13.056c-5.034667-8.917333-10.837333-17.365333-15.701334-26.368-4.992-8.106667 4.565333-17.152 0.896-25.557333a35.157333 35.157333 0 0 1-2.005333-12.714667c-1.152 0-2.304 0.085333-3.413333 0.128a19.2 19.2 0 0 1-12.288 10.965334 18.176 18.176 0 0 1-11.52-11.008L267.52 288.853333z m83.541334-74.794666c22.101333 14.250667 43.093333 30.122667 64.682666 45.056 35.754667 25.173333 71.509333 50.218667 107.136 75.562666-3.797333 2.986667-7.68 5.845333-11.605333 8.576-53.333333 36.949333-106.666667 73.898667-160.213333 110.506667-0.213333-79.914667-0.213333-159.786667 0-239.701333m16.341333 91.562666c3.072 5.077333 6.528 9.898667 9.813333 14.805334 1.706667-1.28 3.328-2.602667 5.077334-3.84 0.298667 16.64 0.170667 33.365333 0.085333 50.048 19.2 2.176 38.741333 1.109333 58.069333 0.426666 1.152-16.853333 0.469333-33.706667 0.853334-50.56 1.706667 1.28 3.413333 2.56 5.034666 3.925334 3.754667-4.992 8.405333-9.685333 9.557334-16.042667-10.069333-4.352-19.456-11.093333-30.592-12.16-2.56 5.717333-7.466667 11.093333-14.336 10.24-6.442667 0.128-9.898667-5.589333-12.928-10.325333-11.178667 2.090667-21.12 7.552-30.634667 13.482666z m169.813333 29.866667c58.24-40.32 115.925333-81.408 174.378667-121.344 0.298667 79.829333 0.128 159.658667 0.128 239.488-58.368-39.125333-116.352-78.762667-174.506667-118.186667m93.952-46.506666c-1.493333 10.112-4.053333 20.608-0.981333 30.72 4.010667 11.093333 14.250667 17.92 22.144 26.026666 4.096 3.541333 2.048 9.514667 2.858667 14.165334-5.546667 2.773333-11.52 4.821333-16.725334 8.277333 12.586667 0.64 25.173333 0.597333 37.802667 0a148.394667 148.394667 0 0 0-17.237333-7.68c1.024-5.034667-1.749333-11.818667 2.688-15.658667 8.234667-7.125333 17.92-13.952 21.76-24.661333 3.242667-10.24 0.128-20.992-1.578667-31.232h-50.773333z m91.178667-74.752c15.274667 9.685333 29.738667 20.608 44.629333 30.848 34.986667 24.576 69.973333 49.194667 104.96 73.685333 6.272 4.437333 12.8 8.533333 18.645334 13.482667-56.064 40.533333-112.085333 81.066667-168.234667 121.514666-0.170667-79.786667-0.170667-159.658667 0-239.530666m30.336 65.834666c2.261333 7.082667 6.485333 14.464 13.952 16.938667 3.968 0.426667 8.064 0.170667 12.074667 0a30.293333 30.293333 0 0 0-6.272-13.610667c-5.418667-5.12-13.013333-3.626667-19.754667-3.328m34.133333 5.973334a27.477333 27.477333 0 0 0-5.674666 11.093333c4.565333 0 9.898667 1.024 13.653333-2.261333a42.24 42.24 0 0 0 6.058667-10.325334c-4.608-0.554667-9.941333-1.237333-14.08 1.493334m-11.562667 14.762666c-19.2 2.346667-34.304 22.314667-30.08 41.472 2.261333 17.92 19.968 31.872 37.888 30.336 9.386667-1.194667 19.029333-5.12 25.130667-12.714666a35.882667 35.882667 0 0 0 5.290666-38.570667 36.48 36.48 0 0 0-38.229333-20.522667z m-47.872 164.949334c54.357333-39.338667 108.885333-78.549333 162.986667-118.186667 0 79.530667 0.256 159.061333-0.085334 238.549333-54.272-39.125333-108.117333-78.890667-162.432-118.058666-0.853333-0.426667-1.408-1.706667-0.426666-2.304m86.272-24.234667c-13.44 2.261333-27.008 9.770667-32.341334 22.869333-1.408 8.149333 6.229333 13.653333 11.434667 18.56 6.613333 6.101333 15.488 7.978667 23.808 10.538667 6.272 3.541333 11.136 9.386667 18.176 11.648 1.408-5.546667 1.28-11.392 1.834667-17.066667 7.850667-3.370667 13.824-9.514667 20.693333-14.293333 6.229333 1.408 9.6 8.362667 15.786667 10.410667 1.28-0.938667 6.229333 0.682667 6.314666-2.304 0.853333-5.248-2.432-9.728-3.754666-14.506667 1.066667-4.864 4.949333-9.045333 3.968-14.336-0.853333-3.584-5.248-5.845333-8.533334-4.010667-4.693333 2.346667-7.637333 6.954667-11.306666 10.496-8.618667-3.669333-14.72-11.306667-23.466667-14.933333a901.376 901.376 0 0 0-0.896-16.213333c-8.746667 1.578667-13.994667 9.685333-21.717333 13.141333zM171.52 348.16c54.272 39.125333 108.202667 78.762667 162.474667 117.930667 1.621333 0.768 0.853333 2.56-0.512 3.114666-54.101333 38.741333-107.562667 78.464-161.834667 116.949334-0.469333-79.36-0.213333-158.677333-0.128-237.994667m49.322667 82.901333c-2.730667 3.2-3.669333 7.424-5.333334 11.221334a48.213333 48.213333 0 0 0-9.301333 4.821333c-5.845333 4.821333-7.978667 12.458667-9.301333 19.584a73.301333 73.301333 0 0 0-0.512 21.418667c0.810667 5.973333 6.741333 10.624 12.629333 10.794666 16.085333 0.256 32.170667 0.341333 48.213333-0.042666 4.266667 0.512 8.106667-1.706667 11.306667-4.309334 4.181333-5.248 2.218667-12.245333 1.877333-18.346666-1.194667-8.874667-1.877333-18.261333-6.272-26.24-2.645333-4.778667-9.130667-5.205333-12.544-9.130667-2.986667-6.272-6.698667-13.056-13.909333-15.146667a18.56 18.56 0 0 0-16.853333 5.376z m245.205333-14.933333c7.424-10.709333 10.794667-23.637333 17.493333-34.773333 4.608 11.264 8.533333 22.784 12.928 34.133333 4.608 0.554667 9.216 1.152 13.781334 1.92l0.128 11.733333c6.784-1.152 13.482667-2.517333 20.224-3.882666-4.821333-14.421333-10.24-28.629333-14.933334-43.093334 13.781333 5.376 27.306667 11.434667 40.96 17.109334-3.328 9.472-6.4 19.029333-9.6 28.586666 5.888-1.408 11.904-2.432 17.706667-4.138666 2.048-0.426667 2.688-2.730667 3.456-4.352 5.333333-12.714667 10.24-25.6 15.872-38.144 9.728 7.082667 19.285333 14.378667 28.714667 21.888-1.450667 2.432-3.968 3.925333-6.058667 5.76-7.168 5.418667-14.208 10.922667-21.333333 16.384 9.216 0.128 18.432 0.170667 27.648 0.128 2.730667 7.125333 4.992 14.421333 6.997333 21.845333l-17.92 0.085333c-2.218667 8.746667-4.224 17.578667-6.186667 26.410667 7.552 1.92 15.402667 2.645333 22.741334 5.376 3.242667 6.613333 5.376 13.696 7.594666 20.736-9.173333 1.194667-18.346667 1.92-27.477333 3.413333-2.517333 14.464-3.584 29.184-6.613333 43.52-4.437333 4.522667-10.197333 7.466667-15.36 10.965334-3.285333-18.688-6.4-37.418667-9.728-56.064-6.016-0.597333-12.032-0.938667-18.048-1.706667-3.797333 15.616-6.954667 31.36-11.093334 46.848-4.010667 5.376-11.264 7.04-16.512 10.922667-1.024-18.346667-0.853333-36.736-2.133333-55.04a1354.666667 1354.666667 0 0 1-13.354667-1.109334c-1.962667-5.546667-3.669333-11.221333-5.546666-16.853333-7.765333 8.362667-6.954667 20.224-8.661334 30.72-2.005333 14.421333-3.328 28.928-5.888 43.264a622.933333 622.933333 0 0 1-33.792-24.32c7.082667-2.389333 14.293333-4.352 21.461334-6.4-1.365333-10.24-2.474667-20.48-4.010667-30.72-4.010667 3.114667-7.936 6.314667-12.117333 9.173333a1512.448 1512.448 0 0 1-10.24-34.261333c7.936-1.066667 15.872-2.389333 23.765333-3.968-0.853333-7.68-1.749333-15.36-2.816-22.954667-2.133333-0.64-4.266667-1.194667-6.272-2.218666-5.034667-6.272-8.405333-13.653333-12.117333-20.821334 5.376-2.133333 11.392-2.986667 16.341333-6.144m26.794667 52.266667a214.613333 214.613333 0 0 1 20.394666-0.938667c-1.706667 4.437333-3.754667 8.746667-5.674666 13.098667 6.528-2.261333 13.056-4.693333 19.626666-7.04-1.365333-7.04-2.944-13.994667-4.48-20.906667-4.352-1.28-8.704-2.432-12.885333-3.968-3.285333-3.669333-4.736-8.661333-7.125333-12.885333-8.533333 8.661333-8.106667 21.461333-9.856 32.64m61.653333-16.213333c-1.536 8.234667-2.730667 16.512-3.968 24.746666 7.594667-1.578667 15.274667-2.986667 22.912-4.394666-0.64-8.021333-1.621333-16.042667-1.962667-24.064-5.674667 1.28-11.306667 2.56-16.981333 3.754666z" fill="#FFFFFF" p-id="41494"></path><path d="M231.253333 431.914667c7.168-2.261333 12.373333 4.437333 15.146667 9.941333-8.32 0.213333-16.64 0.213333-24.96 0 2.474667-3.84 4.821333-9.088 9.813333-9.941333z m315.306667 168.106666c54.4-40.917333 109.482667-80.896 164.138667-121.344 0.426667 35.072-0.512 70.186667 0.938666 105.301334 0.128 44.714667 0.085333 89.429333 0 134.144-17.578667-11.776-34.218667-24.832-51.541333-36.992-38.058667-26.709333-75.392-54.442667-113.493333-81.109334m98.304-47.616c-1.664 4.821333-3.029333 9.728-4.352 14.677334 3.84-1.621333 7.68-2.986667 11.733333-3.84 7.253333-1.237333 14.421333 0.981333 20.992 3.84a827.733333 827.733333 0 0 0-4.565333-14.592l-23.808-0.085334m4.992 17.962667a26.965333 26.965333 0 0 0-18.56 17.365333c-3.584 11.52 1.194667 25.472 11.946666 31.317334 9.514667 5.973333 23.04 4.48 30.976-3.328 13.824-10.922667 10.837333-36.096-5.418666-43.178667-5.674667-3.541333-12.672-2.816-18.944-2.133333m-9.429334 56.106666c1.621333 4.906667 2.986667 9.898667 5.248 14.592 7.936-0.170667 15.872-0.341333 23.808-0.938666l3.669334-14.165334c-9.984 6.058667-22.314667 4.906667-32.725334 0.512z m81.792-147.754666c56.32 39.296 112.256 79.061333 168.362667 118.698666-29.44 22.058667-59.904 42.752-89.685333 64.341334-26.325333 18.602667-52.053333 38.058667-78.634667 56.32-0.170667-79.786667-0.085333-159.573333-0.042667-239.36m54.144 66.816c0.170667 5.546667 0.042667 11.136 0.938667 16.64l5.290667-0.128c1.706667-3.2 0.64-7.125333 1.024-10.538667 3.114667-6.272-4.906667-4.48-7.253334-5.973333m-22.997333 1.536a80.682667 80.682667 0 0 0-0.426667 13.824 40.362667 40.362667 0 0 0 6.101334 2.218666c-1.450667-5.418667 3.584-15.829333-5.674667-16.042666m47.573333 0.853333c-1.706667 4.010667-0.682667 8.533333-0.341333 12.8-0.384 2.432 5.546667 2.986667 5.973333 0.725333 1.28-3.882667 0.384-8.106667 0.042667-12.117333-0.469333-2.218667-2.389333-2.688-5.674667-1.450667m-53.845333 22.016c-0.597333 20.309333-0.938667 40.661333 0.042667 61.013334 0.256 2.730667 3.242667 3.797333 5.632 3.797333 16.085333 0.256 32.170667 0.042667 48.213333 0 3.626667-0.725333 8.96 1.152 11.52-2.432 2.176-3.754667 1.578667-8.405333 2.389333-12.544 3.626667-1.194667 7.253333-2.56 10.666667-4.309333 6.272-4.608 7.509333-13.568 4.693333-20.48-3.285333-5.802667-10.282667-7.722667-15.957333-10.24-0.256-4.992-0.426667-9.898667-0.768-14.805334h-66.432z m-575.36 26.026667c55.68-38.698667 110.848-78.08 166.698667-116.522667a39484.586667 39484.586667 0 0 1 0 238.848c-33.322667-24.192-66.517333-48.64-99.797334-72.96-22.186667-16.64-45.184-32.170667-66.901333-49.408m138.368-40.448c-4.778667 5.461333-9.728 10.922667-13.397333 17.237334-6.741333 10.24-8.576 23.04-16.170667 32.853333-13.312 4.394667-29.824 4.650667-39.381333 16.512 11.477333 9.472 27.52 9.642667 41.386666 7.381333 8.106667-1.152 10.88-9.984 11.946667-16.896 1.749333-7.850667 3.413333-17.834667 11.178667-22.016 2.645333-1.706667 4.138667 1.92 4.693333 4.010667 0.725333 11.946667 0.128 23.893333 0.213333 35.84h4.778667c-0.341333-13.013333-2.005333-26.88 3.285333-39.168 2.389333-6.656 6.528-13.354667 4.48-20.693333-1.664-6.912-7.253333-11.477333-13.013333-15.061334z m40.874667-75.946666c32.896 22.954667 64.938667 47.189333 97.450666 70.741333 22.186667 16.128 44.330667 32.384 66.432 48.597333-54.570667 39.850667-109.141333 79.701333-163.84 119.466667-0.341333-79.616-0.170667-159.232-0.042666-238.805333m46.634666 79.488c-3.754667 1.621333-5.205333 5.973333-7.68 8.917333-5.546667 0.469333-11.136 0.853333-16.64 1.834667-2.730667 0.597333-3.157333 3.925333-3.2 6.272 0 15.957333-0.554667 31.957333 0.469334 47.872 0.469333 4.224 6.229333 4.010667 9.173333 3.882666 23.210667-0.298667 46.506667 0.64 69.717333-0.469333 3.541333-0.256 4.010667-4.821333 3.754667-7.424 0.512-16.213333-0.085333-32.426667 0.213333-48.597333-5.461333-3.456-12.117333-3.413333-18.346666-3.541334-3.029333-3.2-5.674667-7.253333-9.856-8.96a157.866667 157.866667 0 0 0-27.605334 0.213334z m-40.832 169.088c56.149333-39.253333 111.786667-79.189333 168.234667-118.101334 0.341333 42.410667-0.085333 84.821333 0.170667 127.232 1.365333 37.504 0.853333 75.008 0.597333 112.512-39.936-27.989333-79.146667-57.045333-118.954667-85.290666-16.384-12.501333-33.706667-23.765333-50.048-36.352m106.965334-45.909334h7.978666c-1.28-1.706667-2.517333-3.498667-3.754666-5.290666l-4.266667 5.290666m-30.293333 18.517334c-6.698667 6.698667-9.301333 16.085333-12.074667 24.917333 3.114667-0.682667 6.186667-1.408 9.344-1.877333 5.888-0.426667 11.861333 2.688 17.706667 0.725333a26.282667 26.282667 0 0 1 15.488-0.853333c-0.810667 11.093333-0.554667 22.272-1.450667 33.365333-0.853333 3.541333-5.290667 3.84-8.064 4.736-2.389333-4.352-3.925333-9.216-7.253333-13.013333-1.834667 1.578667-4.053333 2.986667-5.12 5.248a15.018667 15.018667 0 0 0 11.349333 16.554666c7.68 2.688 17.066667-2.858667 18.986667-10.666666 0.768-12.032 0.170667-24.192 0.170666-36.266667 6.570667-2.304 12.8 0.768 19.114667 1.877333 7.424-1.28 14.933333-2.261333 22.229333 0.128-2.133333-8.149333-3.669333-17.066667-9.685333-23.424-3.84-4.693333-9.130667-7.978667-14.165333-11.221333a46.378667 46.378667 0 0 0-56.533334 9.770667z m103.253333-90.837334c56.149333 39.210667 112 78.762667 168.192 117.930667-55.808 41.002667-112.042667 81.365333-168.106667 121.941333-0.426667-79.957333-0.256-159.914667-0.128-239.872m55.253334 68.010667c-1.877333 2.474667-3.2 5.589333-6.4 6.613333-7.125333 3.712-12.074667 10.325333-19.029334 14.293334 2.517333 1.749333 5.333333 3.114667 8.533334 2.517333 15.274667 0.256 30.549333 0.426667 45.738666-0.981333-4.010667-5.290667-9.898667-8.832-14.976-13.013334-4.778667-2.986667-8.362667-7.765333-13.866666-9.386666m-25.6 31.616c0.128 15.061333-0.341333 30.165333 0.128 45.226666-0.853333 2.517333 0.682667 6.272 3.498666 6.741334 16.170667 0.768 32.384 0 48.554667 0.341333 3.072-5.973333 1.962667-12.928 2.304-19.370667-0.128-10.325333 0.384-20.736-0.768-30.976-0.64-3.157333-4.992-3.029333-7.253333-3.072-15.488-0.341333-31.104-0.853333-46.506667 1.109334z" fill="#FFFFFF" p-id="41495"></path></svg>