<?xml version="1.0" standalone="no"?><!DOCTYPE svg PUBLIC "-//W3C//DTD SVG 1.1//EN" "http://www.w3.org/Graphics/SVG/1.1/DTD/svg11.dtd"><svg t="1771250760226" class="icon" viewBox="0 0 1026 1024" version="1.1" xmlns="http://www.w3.org/2000/svg" p-id="24872" xmlns:xlink="http://www.w3.org/1999/xlink" width="64.125" height="64"><path d="M998.4 601.6l-153.6-44.8c-19.2-6.4-38.4-6.4-57.6-6.4 25.6-51.2 44.8-102.4 44.8-160C832 204.8 678.4 57.6 499.2 57.6S160 211.2 160 390.4c0 51.2 12.8 102.4 32 147.2H32c-19.2 0-32 12.8-32 32v358.4c0 19.2 12.8 32 32 32h505.6c6.4 0 12.8 0 19.2-6.4l454.4-294.4c12.8-6.4 19.2-19.2 12.8-32 0-12.8-12.8-12.8-25.6-25.6zM492.8 121.6c147.2 0 268.8 121.6 268.8 268.8 0 70.4-25.6 134.4-76.8 185.6L512 640 268.8 537.6h-6.4c0-6.4 0-12.8-6.4-19.2-19.2-38.4-32-83.2-32-128 0-147.2 121.6-268.8 268.8-268.8z m32 780.8H64V601.6h185.6l147.2 64H275.2v64H460.8L768 627.2c19.2-6.4 38.4-6.4 57.6 0l89.6 25.6-390.4 249.6z" fill="#8a8a8a" p-id="24873"></path><path d="M627.2 390.4l-128-128-128 128 128 128 128-128z m-128-38.4l38.4 38.4-38.4 44.8-38.4-44.8 38.4-38.4z" fill="#8a8a8a" p-id="24874"></path></svg>