<?xml version="1.0" standalone="no"?><!DOCTYPE svg PUBLIC "-//W3C//DTD SVG 1.1//EN" "http://www.w3.org/Graphics/SVG/1.1/DTD/svg11.dtd"><svg t="1771255492054" class="icon" viewBox="0 0 1024 1024" version="1.1" xmlns="http://www.w3.org/2000/svg" p-id="93865" xmlns:xlink="http://www.w3.org/1999/xlink" width="64" height="64"><path d="M42.666667 256a213.333333 213.333333 0 0 1 213.333333-213.333333h512a213.333333 213.333333 0 0 1 213.333333 213.333333v512a213.333333 213.333333 0 0 1-213.333333 213.333333H256a213.333333 213.333333 0 0 1-213.333333-213.333333V256z m213.333333-128a128 128 0 0 0-128 128v512a128 128 0 0 0 128 128h512a128 128 0 0 0 128-128V256a128 128 0 0 0-128-128H256z" fill="#8a8a8a" p-id="93866"></path><path d="M593.792 213.333333a42.666667 42.666667 0 0 1 42.666667 42.666667v88.874667a42.666667 42.666667 0 0 0 42.666666 42.666666H768a42.666667 42.666667 0 1 1 0 85.333334h-88.874667a128 128 0 0 1-128-128V256a42.666667 42.666667 0 0 1 42.666667-42.666667zM213.333333 593.792a42.666667 42.666667 0 0 1 42.666667-42.666667h88.874667a128 128 0 0 1 128 128V768a42.666667 42.666667 0 1 1-85.333334 0v-88.874667a42.666667 42.666667 0 0 0-42.666666-42.666666H256a42.666667 42.666667 0 0 1-42.666667-42.666667z" fill="#8a8a8a" p-id="93867"></path></svg>