<?xml version="1.0" standalone="no"?><!DOCTYPE svg PUBLIC "-//W3C//DTD SVG 1.1//EN" "http://www.w3.org/Graphics/SVG/1.1/DTD/svg11.dtd"><svg t="1772675319846" class="icon" viewBox="0 0 1040 1024" version="1.1" xmlns="http://www.w3.org/2000/svg" p-id="10541" xmlns:xlink="http://www.w3.org/1999/xlink" width="65" height="64"><path d="M621.033258 621.181654l44.518514 44.518513a23.372219 23.372219 0 0 1-16.47185 39.769871H495.936237a23.372219 23.372219 0 0 1-23.298022-23.298021V529.028331a23.298022 23.298022 0 0 1 39.992464-16.397652l42.886168 42.886168a279.05688 279.05688 0 1 1 1.632345 379.520324 46.596044 46.596044 0 0 1 67.66814-63.735671 186.087385 186.087385 0 1 0 8.38432-262.956018q-6.455184 6.158394-12.390986 12.761974zM154.998623 868.111006h-30.940366A124.058257 124.058257 0 0 1 0 744.05275V124.058257A124.058257 124.058257 0 0 1 124.058257 0h620.142888a124.058257 124.058257 0 0 1 124.058256 124.058257v30.940366h30.940367a124.058257 124.058257 0 0 1 124.058257 124.058257V434.055503a46.521846 46.521846 0 1 1-93.043693 0V279.05688a30.940367 30.940367 0 0 0-30.940366-30.940367H278.908485a30.940367 30.940367 0 0 0-30.940367 30.940367v620.142888a31.014564 31.014564 0 0 0 30.940367 30.940367h154.998623a46.521846 46.521846 0 0 1 0 93.043692H278.908485a124.058257 124.058257 0 0 1-124.058257-124.058256v-30.940367z m619.994493-713.038185v-30.940367a30.940367 30.940367 0 0 0-30.940366-30.940366H123.909862a30.940367 30.940367 0 0 0-30.940367 30.940366v620.142888a31.014564 31.014564 0 0 0 30.940367 30.940367h30.940366V278.982682a124.058257 124.058257 0 0 1 124.058257-124.355046h496.084631z" p-id="10542" fill="#8a8a8a"></path></svg>