<svg t="1758369624532" class="icon" viewBox="0 0 1024 1024" version="1.1" xmlns="http://www.w3.org/2000/svg" p-id="4762" width="64" height="64"><path d="M535 193.9c-37.6-18.5-81.6-14.1-114.8 11.5L340.5 267c-3.9 2.4-8.3 3.7-12.8 3.7h-90.3C169.4 270.6 114 326 114 394v236.3c0 68 55.3 123.4 123.4 123.4h89.9c4.8 0 9.4 1.3 13.5 3.9l79.5 61.2c19.6 15.1 42.9 22.8 66.4 22.8 16.4 0 32.9-3.7 48.3-11.3 37.6-18.5 60.9-56 60.9-97.9V291.9c0-41.9-23.3-79.5-60.9-98z m-7.1 538.2c0 16-8.6 29.8-23 36.9-14.4 7.1-30.5 5.5-43.2-4.3L380.3 702l-0.9-0.6c-15.5-10.4-33.5-15.8-52.1-15.8h-89.9c-30.5 0-55.4-24.8-55.4-55.4V394c0-30.5 24.8-55.4 55.4-55.4h90.3c18.4 0 36.2-5.4 51.5-15.7l0.9-0.6 81.7-63c12.7-9.8 28.9-11.4 43.2-4.3 14.4 7.1 23 20.9 23 36.9v440.2zM876 477.9H722.2c-18.8 0-34 15.2-34 34s15.2 34 34 34H876c18.8 0 34-15.2 34-34s-15.2-34-34-34zM722.2 407.8c8.7 0 17.4-3.3 24-10L855 289.1c13.3-13.3 13.3-34.8 0-48.1-13.3-13.3-34.8-13.3-48.1 0L698.1 349.8c-13.3 13.3-13.3 34.8 0 48.1 6.7 6.6 15.4 9.9 24.1 9.9zM746.2 626c-13.3-13.3-34.8-13.3-48.1 0-13.3 13.3-13.3 34.8 0 48.1l108.8 108.8c6.6 6.6 15.3 10 24 10s17.4-3.3 24-10c13.3-13.3 13.3-34.8 0-48.1L746.2 626z" p-id="4763"></path></svg>
