<?xml version="1.0" standalone="no"?><!DOCTYPE svg PUBLIC "-//W3C//DTD SVG 1.1//EN" "http://www.w3.org/Graphics/SVG/1.1/DTD/svg11.dtd"><svg t="1773901971222" class="icon" viewBox="0 0 1024 1024" version="1.1" xmlns="http://www.w3.org/2000/svg" p-id="17710" xmlns:xlink="http://www.w3.org/1999/xlink" width="64" height="64"><path d="M616.175 653.892a27.648 27.648 0 1 0 0-55.296h-83.866v-1.126l102.469-107.008a27.477 27.477 0 1 0-39.646-38.127L507.34 544.58l-92.945-92.757a27.614 27.614 0 0 0-39.083 0.051c-10.803 10.82-11.315 28.33-0.512 39.083l102.23 102.502v5.137h-81.92a27.648 27.648 0 0 0 0 55.296h81.92v55.296h-81.92a27.648 27.648 0 1 0 0 55.296h81.92v82.193a27.648 27.648 0 1 0 55.295 0v-82.193h83.866c15.292 0 27.648-12.356 27.648-27.648 0-15.291-12.356-27.648-27.648-27.648h-83.883v-55.296h83.883zM510.327 1024c-76.475 0-143.41-8.175-198.929-24.303-56.763-16.47-104.448-40.79-141.738-72.328a288.836 288.836 0 0 1-83.866-117.163c-17.288-44.493-26.06-95.352-26.06-151.177 0-33.792 3.89-65.962 11.57-95.641a410.3 410.3 0 0 1 30.96-82.705c12.834-25.259 27.323-48.555 43.11-69.24a557.056 557.056 0 0 1 48.879-56.115c40.362-40.311 73.916-62.396 121.736-89.088a29.172 29.172 0 0 1 14.166-3.686l363.315-1.076h0.085c5.035 0 9.984 1.297 14.37 3.79 49.87 28.176 77.04 51.49 115.678 90.06l0.393 0.41c15.94 16.554 32.136 35.14 48.128 55.261a390.758 390.758 0 0 1 44.066 69.974 450.901 450.901 0 0 1 30.72 82.125c8.055 29.798 12.117 62.071 12.117 95.931 0 55.825-8.755 106.684-26.044 151.177a288.973 288.973 0 0 1-83.865 117.163c-37.24 31.505-84.77 55.842-141.244 72.328C652.664 1015.808 586.19 1024 510.327 1024zM337.903 321.092c-40.568 22.92-68.403 41.814-102.332 75.69-15.018 14.985-29.696 31.881-43.708 50.228a390.758 390.758 0 0 0-37.427 60.194 351.693 351.693 0 0 0-26.504 70.878c-6.434 24.883-9.694 52.122-9.694 80.947 0 48.538 7.424 92.246 22.084 129.946a230.93 230.93 0 0 0 67.072 93.645c30.993 26.197 71.458 46.66 120.303 60.842 50.227 14.575 111.667 21.982 182.613 21.982 70.315 0 131.294-7.39 181.197-21.965 48.572-14.165 88.9-34.645 119.86-60.842a231.083 231.083 0 0 0 67.088-93.662c14.66-37.7 22.085-81.408 22.085-129.946 0-28.706-3.414-55.842-10.104-80.674a392.192 392.192 0 0 0-26.692-71.424 332.032 332.032 0 0 0-37.393-59.477 717.824 717.824 0 0 0-44.271-50.859c-33.604-33.536-56.32-53.282-96.273-76.527l-347.904 1.024z m22.494-79.462c-26.044 0-38.673-11.4-50.244-24.15a3385.003 3385.003 0 0 0-30.55-31.846c-11.878-12.254-17.954-17.954-20.975-20.582a89.43 89.43 0 0 1-18.534-22.58 98.253 98.253 0 0 1-10.581-26.436 70.025 70.025 0 0 1 17.51-64.938c10.667-10.667 22.187-16.06 34.202-16.06 1.792 0 3.584 0.12 5.358 0.358l0.12 0.017c7.236 1.058 14.609 3.362 22.562 7.083 5.12 2.39 11.093 5.035 17.835 7.85 2.099 0.854 7.1 2.356 16.554 2.356 2.048 0 3.243-0.29 3.619-0.427 4.846-4.608 9.54-9.66 13.96-15.104 6.025-7.51 12.868-14.711 20.258-21.35C393.251 5.29 408.218 0 426.052 0c22.614 0 36.728 8.858 44.595 16.282a179.44 179.44 0 0 1 19.405 21.589 73.635 73.635 0 0 0 12.22 12.51c0.102 0.068 1.894 1.4 8.055 1.4a8.14 8.14 0 0 0 3.192-0.41c4.898-4.386 9.745-9.387 14.438-14.848 6.417-7.476 13.568-14.61 21.214-21.163C561.101 5.154 576.051 0 593.664 0c22.255 0 36.489 8.585 44.51 15.787 7.612 6.843 14.472 14.267 20.429 22.084 3.925 5.171 8.226 9.967 12.8 14.268 0.41 0.17 1.792 0.563 4.676 0.563 9.233 0 13.807-1.365 15.701-2.202a760.787 760.787 0 0 0 17.698-7.97c7.97-3.755 15.36-6.059 22.58-7.1l0.136-0.017a37.542 37.542 0 0 1 5.36-0.375c12.031 0 23.551 5.393 34.2 16.06a66.543 66.543 0 0 1 17.323 33.28 80.478 80.478 0 0 1 0 30.378 82.517 82.517 0 0 1-11.383 28.604 117.129 117.129 0 0 1-16.18 20.412c-0.443 0.443-0.904 0.853-1.365 1.28-2.952 2.577-8.977 8.243-20.975 20.582a3340.374 3340.374 0 0 0-30.737 32.085l-0.085 0.086c-7.51 7.85-13.995 14.643-25.259 18.773-9.045 3.294-17.68 3.72-33.4 4.472a28.604 28.604 0 0 1-1.416 0.034H371.78c-4.266 0.358-8.021 0.546-11.383 0.546z m-2.185-58.641c0.461 0.034 1.16 0.068 2.185 0.068 1.945 0 4.386-0.136 7.458-0.41a27.19 27.19 0 0 1 2.645-0.119h277.06c5.633-0.273 11.282-0.563 14.337-0.887l4.096-4.233a3075.599 3075.599 0 0 1 31.266-32.631 490.41 490.41 0 0 1 23.552-23.075 59.733 59.733 0 0 0 7.424-9.625c1.706-2.73 2.833-5.462 3.362-8.295 0.46-2.389 0.529-4.71 0.222-7.082a736.634 736.634 0 0 1-16.76 7.51c-10.957 4.76-23.688 7.048-38.98 7.048-22.648 0-36.779-8.875-44.646-16.333-6.895-6.486-13.432-13.756-19.371-21.555a102.963 102.963 0 0 0-12.97-14.012c-0.018 0-1.366-0.802-5.428-0.802-3.106 0-5.53 0.495-6.485 1.297A137.78 137.78 0 0 0 572.33 74.7c-6.383 7.424-13.073 14.268-19.866 20.343-11.144 9.984-25.736 15.292-42.155 15.292-17.954 0-33.024-4.847-44.8-14.404a131.499 131.499 0 0 1-21.947-22.528 120.49 120.49 0 0 0-12.8-14.285 14.37 14.37 0 0 0-4.71-0.563c-3.755 0-5.326 0.682-5.513 0.853a127.113 127.113 0 0 0-13.858 14.61c-6.144 7.56-12.63 14.591-19.354 20.94-7.834 7.407-21.794 16.299-43.69 16.299-15.139 0-27.888-2.236-38.98-6.827-6.725-2.816-12.8-5.461-18.194-7.953l-0.034 0.136a11.674 11.674 0 0 0 0 5.786c0.887 3.755 2.287 7.236 4.267 10.7 1.792 3.056 3.89 5.633 6.4 7.817 5.683 4.967 13.653 12.766 24.456 23.894a3475.763 3475.763 0 0 1 31.727 33.092c2.714 3.004 4.164 4.42 4.932 5.086z" fill="#8a8a8a" p-id="17711"></path></svg>