<?xml version="1.0" standalone="no"?><!DOCTYPE svg PUBLIC "-//W3C//DTD SVG 1.1//EN" "http://www.w3.org/Graphics/SVG/1.1/DTD/svg11.dtd"><svg t="1746088863277" class="icon" viewBox="0 0 1024 1024" version="1.1" xmlns="http://www.w3.org/2000/svg" p-id="3818" xmlns:xlink="http://www.w3.org/1999/xlink" width="200" height="200"><path d="M463.238095 100.352v73.776762C297.813333 197.778286 170.666667 340.041143 170.666667 512c0 188.513524 152.81981 341.333333 341.333333 341.333333 171.958857 0 314.221714-127.146667 337.871238-292.571428h73.776762c-24.137143 205.921524-199.241143 365.714286-411.648 365.714285-228.912762 0-414.47619-185.563429-414.47619-414.47619 0-212.406857 159.792762-387.510857 365.714285-411.648zM512 97.52381c226.255238 0 410.209524 181.321143 414.403048 406.601142L926.47619 512H512V97.52381z m73.142857 80.993523V438.857143h260.33981A341.820952 341.820952 0 0 0 593.042286 180.345905L585.142857 178.517333z" p-id="3819"></path></svg>