<?xml version="1.0" standalone="no"?><!DOCTYPE svg PUBLIC "-//W3C//DTD SVG 1.1//EN" "http://www.w3.org/Graphics/SVG/1.1/DTD/svg11.dtd"><svg t="1772674991541" class="icon" viewBox="0 0 1024 1024" version="1.1" xmlns="http://www.w3.org/2000/svg" p-id="4681" xmlns:xlink="http://www.w3.org/1999/xlink" width="64" height="64"><path d="M849.92 1020.416H174.08a174.08 174.08 0 0 1-174.08-172.8V176.5376A174.08 174.08 0 0 1 174.08 3.584h675.84a174.08 174.08 0 0 1 174.08 172.8512v671.0272a174.08 174.08 0 0 1-174.08 172.9536zM174.08 80.9472A96.7168 96.7168 0 0 0 77.3632 176.64v670.72A96.6656 96.6656 0 0 0 174.08 943.0528h675.84a96.6656 96.6656 0 0 0 96.6144-95.6928v-670.72A96.7168 96.7168 0 0 0 849.92 80.9472z" p-id="4682" fill="#8a8a8a"></path><path d="M471.9104 825.3952a36.6592 36.6592 0 0 1 8.192 52.8896 40.96 40.96 0 0 1-55.4496 7.7824 39.3216 39.3216 0 0 1-8.9088-8.8064l-83.8144-78.2336-83.3536 78.2336a40.96 40.96 0 0 1-56.32 0 36.7104 36.7104 0 0 1 0-53.6064L276.48 745.4208 192.3584 665.6a36.7104 36.7104 0 0 1 10.24-52.5824 40.96 40.96 0 0 1 46.08 0.768l83.8144 79.9744 83.2512-80.1792a40.96 40.96 0 0 1 56.32 0 36.7104 36.7104 0 0 1 0 53.6064l-83.968 78.2336zM489.8816 366.336H371.5072v112.9472a38.1952 38.1952 0 0 1-35.072 41.6256 39.2192 39.2192 0 0 1-43.6736-33.4848 35.84 35.84 0 0 1 0-8.1408V366.336H174.3872A39.2192 39.2192 0 0 1 130.7648 332.8a38.2464 38.2464 0 0 1 35.1232-41.6256 39.3216 39.3216 0 0 1 8.4992 0h118.3744V178.2272A38.2976 38.2976 0 0 1 327.68 136.5504a39.2704 39.2704 0 0 1 43.6224 33.536 35.84 35.84 0 0 1 0 8.1408v112.9472h118.5792a39.2192 39.2192 0 0 1 43.6736 33.536 38.2464 38.2464 0 0 1-35.1232 41.6256 39.7824 39.7824 0 0 1-8.5504 0zM853.9648 846.592h-236.7488a38.2976 38.2976 0 0 1-35.1232-41.6768 38.7072 38.7072 0 0 1 35.1232-33.4848h236.7488a38.7072 38.7072 0 0 1 39.5776 37.7856 38.2464 38.2464 0 0 1-39.1168 37.3248zM853.9648 695.808h-236.7488a38.2464 38.2464 0 0 1-35.1232-41.6256 38.8096 38.8096 0 0 1 35.1232-33.536h236.7488a39.168 39.168 0 0 1 43.6224 33.536 38.2464 38.2464 0 0 1-35.1232 41.6256 39.3216 39.3216 0 0 1-8.4992 0zM851.6096 366.336h-236.7488a39.168 39.168 0 0 1-43.6224-33.536 38.2464 38.2464 0 0 1 35.1232-41.6256 39.3216 39.3216 0 0 1 8.4992 0h236.7488a39.168 39.168 0 0 1 43.6224 33.536 38.2464 38.2464 0 0 1-35.072 41.6256 39.3216 39.3216 0 0 1-8.4992 0z" p-id="4683" fill="#8a8a8a"></path></svg>