<?xml version="1.0" standalone="no"?><!DOCTYPE svg PUBLIC "-//W3C//DTD SVG 1.1//EN" "http://www.w3.org/Graphics/SVG/1.1/DTD/svg11.dtd"><svg t="1771126187949" class="icon" viewBox="0 0 1024 1024" version="1.1" xmlns="http://www.w3.org/2000/svg" p-id="5932" xmlns:xlink="http://www.w3.org/1999/xlink" width="64" height="64"><path d="M800 960H288c-88.22 0-160-71.78-160-160V224c0-88.22 71.78-160 160-160h256a138.69 138.69 0 0 1 64.61 16.18 168.38 168.38 0 0 1 50.25 40.55C687.55 154.37 704 197.84 704 240v16h96c88.22 0 160 71.78 160 160v384c0 88.22-71.78 160-160 160zM288 128a96.11 96.11 0 0 0-96 96v576a96.11 96.11 0 0 0 96 96h512a96.11 96.11 0 0 0 96-96V416a96.11 96.11 0 0 0-96-96H672a32 32 0 0 1-32-32v-48c0-26.77-11.16-55.83-29.84-77.75C591.32 140.17 567.83 128 544 128z" fill="#8a8a8a" p-id="5933"></path><path d="M480 448H352a32 32 0 0 1-32-32V288a32 32 0 0 1 32-32h128a32 32 0 0 1 32 32v128a32 32 0 0 1-32 32z m-96-64h64v-64h-64zM480 768H352a32 32 0 0 1-32-32V544a32 32 0 0 1 32-32h128a32 32 0 0 1 32 32v192a32 32 0 0 1-32 32z m-96-64h64V576h-64z" fill="#8a8a8a" p-id="5934"></path><path d="M640 448m32 0l64 0q32 0 32 32l0 0q0 32-32 32l-64 0q-32 0-32-32l0 0q0-32 32-32Z" fill="#8a8a8a" p-id="5935"></path><path d="M640 576m32 0l64 0q32 0 32 32l0 0q0 32-32 32l-64 0q-32 0-32-32l0 0q0-32 32-32Z" fill="#8a8a8a" p-id="5936"></path><path d="M640 704m32 0l64 0q32 0 32 32l0 0q0 32-32 32l-64 0q-32 0-32-32l0 0q0-32 32-32Z" fill="#8a8a8a" p-id="5937"></path></svg>