<?xml version="1.0" standalone="no"?><!DOCTYPE svg PUBLIC "-//W3C//DTD SVG 1.1//EN" "http://www.w3.org/Graphics/SVG/1.1/DTD/svg11.dtd"><svg t="1746693053719" class="icon" viewBox="0 0 1024 1024" version="1.1" xmlns="http://www.w3.org/2000/svg" p-id="11527" xmlns:xlink="http://www.w3.org/1999/xlink" width="200" height="200"><path d="M959.651 686.551l-31.168-154.335c-4.045-20.03-23.562-32.989-43.592-28.944-15.914 3.213-32.045 0.223-45.419-8.423-13.086-8.46-21.958-21.361-24.979-36.326-6.309-31.239 15.007-61.996 47.516-68.561 20.03-4.045 32.988-23.562 28.943-43.592l-27.524-136.296c-3.501-17.334-15.097-32.011-31.813-40.266-13.762-6.796-30.09-8.771-45.975-5.564L118.255 299.021c-15.885 3.208-30.166 11.365-40.212 22.969-12.204 14.096-17.195 32.122-13.694 49.456l27.524 136.295c3.546 17.559 18.98 29.684 36.229 29.683 2.427 0 4.892-0.24 7.363-0.739 32.511-6.566 64.09 13.509 70.399 44.749 6.309 31.24-15.007 61.997-47.516 68.562-20.03 4.045-32.988 23.562-28.943 43.592l31.167 154.335c3.501 17.335 15.097 32.012 31.814 40.267 9.457 4.67 20.123 7.064 31.027 7.063 4.963 0 9.978-0.497 14.947-1.5l667.385-134.776c15.885-3.208 30.166-11.366 40.212-22.969 12.204-14.096 17.195-32.122 13.694-49.457z m-309.916-74.507l-79.032 15.96 8.331 41.252c4.045 20.03-8.914 39.547-28.944 43.592a37.18 37.18 0 0 1-7.363 0.739c-17.249 0-32.683-12.124-36.229-29.683l-8.331-41.252-79.032 15.96c-2.471 0.499-4.936 0.74-7.363 0.74-17.249 0-32.683-12.124-36.229-29.683-4.045-20.03 8.914-39.547 28.944-43.592l79.032-15.96-5.854-28.99-85.604 17.288a37.19 37.19 0 0 1-7.363 0.74c-17.249 0-32.683-12.124-36.229-29.683-4.045-20.03 8.913-39.547 28.943-43.592l42.183-8.519-54.971-33.577c-17.438-10.652-22.94-33.424-12.289-50.863 10.652-17.438 33.422-22.941 50.863-12.289l91.031 55.603 62.319-86.572c11.939-16.585 35.062-20.35 51.645-8.412 16.584 11.938 20.351 35.061 8.413 51.645l-37.632 52.278 42.183-8.519c20.033-4.044 39.547 8.914 43.592 28.944 4.045 20.03-8.913 39.547-28.943 43.592L550.2 526.478l5.854 28.991 79.032-15.96c20.03-4.044 39.547 8.913 43.592 28.944 4.046 20.029-8.912 39.546-28.943 43.591z" fill="#ffffff" p-id="11528"></path></svg>