<?xml version="1.0" standalone="no"?><!DOCTYPE svg PUBLIC "-//W3C//DTD SVG 1.1//EN" "http://www.w3.org/Graphics/SVG/1.1/DTD/svg11.dtd"><svg t="1763963760423" class="icon" viewBox="0 0 1024 1024" version="1.1" xmlns="http://www.w3.org/2000/svg" p-id="9822" id="mx_n_1763963760424" width="64" height="64" xmlns:xlink="http://www.w3.org/1999/xlink"><path d="M713.179588 0.22104A31.920043 31.920043 0 0 1 748.848322 31.921474v960.154907c0 19.223527-16.863997 34.085499-35.934308 31.664684l-684.365733-86.761232a31.920043 31.920043 0 0 1-27.905778-31.664683V112.89624a31.920043 31.920043 0 0 1 28.171353-31.695327l684.365732-80.979873z m-28.171353 67.614313L64.482589 141.261667v735.922987l620.525646 78.666309V67.835353z" p-id="9823" fill="#8a8a8a"></path><path d="M987.610247 76.609534a31.920043 31.920043 0 0 1 31.920044 31.920044v806.938699a31.920043 31.920043 0 0 1-31.920044 31.920044h-270.681969a31.920043 31.920043 0 0 1-31.920043-31.920044V108.529578a31.920043 31.920043 0 0 1 31.920043-31.920044h270.681969z m-31.920043 63.840087h-206.841882v743.098613h206.841882V140.449621zM219.598679 285.816053c19.907893-34.917974 64.355915-47.078234 99.273889-27.170341l203.527304 116.081707a72.777699 72.777699 0 0 1 27.170342 27.160126c19.907893 34.917974 7.747633 79.365996-27.170342 99.273889L318.872568 617.238034a72.777699 72.777699 0 0 1-36.056881 9.560691c-40.193719 0-72.777699-32.58398-72.777699-72.777699V321.867827c0-12.645444 3.294148-25.071279 9.560691-36.056881z m67.644956 28.288819a8.937612 8.937612 0 0 0-13.36556 7.762955v232.153199a8.937612 8.937612 0 0 0 13.36556 7.762955L490.776047 445.707381a8.937612 8.937612 0 0 0 0-15.525909L287.243635 314.104872zM174.512256 763.574835a31.920043 31.920043 0 0 1 35.479767-27.910886l342.182866 40.857656a31.920043 31.920043 0 1 1-7.568881 63.390652l-342.182866-40.857655a31.920043 31.920043 0 0 1-27.910886-35.479767z" p-id="9824" fill="#8a8a8a"></path></svg>