<?xml version="1.0" standalone="no"?><!DOCTYPE svg PUBLIC "-//W3C//DTD SVG 1.1//EN" "http://www.w3.org/Graphics/SVG/1.1/DTD/svg11.dtd"><svg t="1773019304551" class="icon" viewBox="0 0 1024 1024" version="1.1" xmlns="http://www.w3.org/2000/svg" p-id="7330" xmlns:xlink="http://www.w3.org/1999/xlink" width="64" height="64"><path d="M957.217 1019.548h-801.39A129.113 129.113 0 0 1 26.712 890.435v-756.87A129.113 129.113 0 0 1 155.826 4.452h712.348a129.113 129.113 0 0 1 129.113 129.113v621.078a39.402 39.402 0 0 1-8.593 27.025c-24.309 30.81-35.706 59.437-35.706 86.506 0 27.07 11.397 55.652 35.706 86.506a40.07 40.07 0 0 1-31.477 64.868zM917.147 716.8V133.565a48.974 48.974 0 0 0-48.973-48.974H155.826a48.974 48.974 0 0 0-48.974 48.974V734.61a150.706 150.706 0 0 1 71.235-17.809h739.06z m-739.06 222.609h709.098a188.861 188.861 0 0 1-14.336-71.235c0-24.042 4.853-47.772 14.336-71.235H178.087a71.235 71.235 0 1 0 0 142.47z m111.304-716.8H734.61a44.522 44.522 0 0 1 0 89.043H289.39a44.522 44.522 0 1 1 0-89.043z m0 267.13H734.61a44.522 44.522 0 0 1 0 89.044H289.39a44.522 44.522 0 0 1 0-89.044z" p-id="7331" fill="#8a8a8a"></path></svg>