<?xml version="1.0" standalone="no"?><!DOCTYPE svg PUBLIC "-//W3C//DTD SVG 1.1//EN" "http://www.w3.org/Graphics/SVG/1.1/DTD/svg11.dtd"><svg t="1763966530914" class="icon" viewBox="0 0 1042 1024" version="1.1" xmlns="http://www.w3.org/2000/svg" p-id="61913" xmlns:xlink="http://www.w3.org/1999/xlink" width="65.125" height="64"><path d="M916.114286 109.714286h-804.571429c-20.114286 0-36.571429 16.457143-36.571428 36.571428v621.714286c0 20.114286 16.457143 36.571429 36.571428 36.571429h804.571429c20.114286 0 36.571429-16.457143 36.571428-36.571429V146.285714c0-20.114286-16.457143-36.571429-36.571428-36.571428z m-36.571429 621.714285h-731.428571V182.857143h731.428571v548.571428zM788.114286 841.142857h-548.571429v73.142857h548.571429v-73.142857z" p-id="61914" fill="#8a8a8a"></path><path d="M469.942857 431.542857c-12.8 3.657143-21.942857 14.628571-25.6 27.428572L405.942857 621.714286c-3.657143 12.8 0 25.6 9.142857 34.742857 7.314286 7.314286 16.457143 10.971429 25.6 10.971428 3.657143 0 5.485714 0 9.142857-1.828571l162.742858-38.4c12.8-3.657143 23.771429-12.8 27.428571-25.6 0-3.657143 1.828571-5.485714 1.828571-9.142857l181.028572-181.028572c14.628571-14.628571 14.628571-36.571429 0-51.2l-109.714286-109.714285c-14.628571-14.628571-38.4-14.628571-51.2 0l-181.028571 181.028571c-3.657143-1.828571-7.314286-1.828571-10.971429 0z m21.942857 148.114286l9.142857-42.057143 31.085715 31.085714-40.228572 10.971429z m195.657143-254.171429l58.514286 58.514286-148.114286 148.114286-58.514286-58.514286 148.114286-148.114286zM501.028571 274.285714h-256v73.142857h256v-73.142857zM354.742857 438.857143h-109.714286v73.142857h109.714286v-73.142857z" p-id="61915" fill="#8a8a8a"></path></svg>