<?xml version="1.0" standalone="no"?><!DOCTYPE svg PUBLIC "-//W3C//DTD SVG 1.1//EN" "http://www.w3.org/Graphics/SVG/1.1/DTD/svg11.dtd"><svg t="1771117962117" class="icon" viewBox="0 0 1024 1024" version="1.1" xmlns="http://www.w3.org/2000/svg" p-id="4859" xmlns:xlink="http://www.w3.org/1999/xlink" width="64" height="64"><path d="M786.285714 1024H237.714286a182.857143 182.857143 0 0 1-182.857143-182.857143V473.234286a182.857143 182.857143 0 0 1 182.857143-182.857143h548.571428a182.857143 182.857143 0 0 1 182.857143 182.857143V841.142857a182.857143 182.857143 0 0 1-182.857143 182.857143zM237.714286 363.52a109.714286 109.714286 0 0 0-109.714286 109.714286V841.142857a109.714286 109.714286 0 0 0 109.714286 109.714286h548.571428a109.714286 109.714286 0 0 0 109.714286-109.714286V473.234286a109.714286 109.714286 0 0 0-109.714286-109.714286z" fill="#8a8a8a" p-id="4860"></path><path d="M749.714286 292.571429h-73.142857V152.868571C676.571429 115.2 614.034286 73.142857 530.285714 73.142857h-36.571428C409.965714 73.142857 347.428571 115.2 347.428571 152.868571V292.571429H274.285714V152.868571C274.285714 68.388571 372.662857 0 493.714286 0h36.571428c121.051429 0 219.428571 68.388571 219.428572 152.868571z" fill="#8a8a8a" p-id="4861"></path><path d="M518.217143 891.611429a237.714286 237.714286 0 1 1 237.714286-237.714286 238.08 238.08 0 0 1-237.714286 237.714286z m0-402.285715a164.571429 164.571429 0 1 0 164.571428 164.571429 164.571429 164.571429 0 0 0-164.571428-164.571429z" fill="#8a8a8a" p-id="4862"></path><path d="M473.965714 746.788571a36.571429 36.571429 0 0 1-36.571428-36.571428V585.142857a36.571429 36.571429 0 0 1 73.142857 0v125.44a36.571429 36.571429 0 0 1-36.571429 36.205714z" fill="#8a8a8a" p-id="4863"></path><path d="M566.857143 751.177143h-91.428572a36.571429 36.571429 0 0 1 0-73.142857H566.857143a36.571429 36.571429 0 1 1 0 73.142857z" fill="#8a8a8a" p-id="4864"></path></svg>