<?xml version="1.0" standalone="no"?><!DOCTYPE svg PUBLIC "-//W3C//DTD SVG 1.1//EN" "http://www.w3.org/Graphics/SVG/1.1/DTD/svg11.dtd"><svg t="1771291716574" class="icon" viewBox="0 0 1024 1024" version="1.1" xmlns="http://www.w3.org/2000/svg" p-id="5383" xmlns:xlink="http://www.w3.org/1999/xlink" width="64" height="64"><path d="M512 213.333333H341.333333q-53.034667 0-90.496 37.504Q213.333333 288.298667 213.333333 341.333333v341.333334q0 53.034667 37.504 90.496Q288.298667 810.666667 341.333333 810.666667h341.333334q53.034667 0 90.496-37.504Q810.666667 735.701333 810.666667 682.666667v-170.666667a42.666667 42.666667 0 1 1 85.333333 0v170.666667q0 88.362667-62.506667 150.826666Q771.072 896 682.666667 896H341.333333q-88.362667 0-150.869333-62.506667Q128 771.072 128 682.666667V341.333333q0-88.362667 62.464-150.869333Q253.013333 128 341.333333 128h170.666667a42.666667 42.666667 0 1 1 0 85.333333z" p-id="5384" fill="#8a8a8a"></path><path d="M671.530667 330.965333Q746.496 256 852.48 256a42.666667 42.666667 0 1 0 0-85.333333q-141.354667 0-241.322667 99.968-69.205333 69.205333-90.496 158.208l-39.552-96.512a42.666667 42.666667 0 0 0-78.933333 32.384l80.042667 195.413333a42.666667 42.666667 0 0 0 55.68 23.296l223.317333-91.562667a42.666667 42.666667 0 0 0 23.296-55.68l-0.213333-0.469333a42.666667 42.666667 0 0 0-55.466667-22.784l-128.512 52.650667q13.141333-76.586667 71.168-134.613334z" p-id="5385" fill="#8a8a8a"></path></svg>