<?xml version="1.0" standalone="no"?><!DOCTYPE svg PUBLIC "-//W3C//DTD SVG 1.1//EN" "http://www.w3.org/Graphics/SVG/1.1/DTD/svg11.dtd"><svg t="1771055581979" class="icon" viewBox="0 0 1024 1024" version="1.1" xmlns="http://www.w3.org/2000/svg" p-id="4891" xmlns:xlink="http://www.w3.org/1999/xlink" width="64" height="64"><path d="M512 1024C229.666281 1024 0 794.298863 0 512S229.701137 0 512 0s512 229.666281 512 512-229.666281 512-512 512z m0-954.287971A442.671387 442.671387 0 0 0 69.712029 512a442.671387 442.671387 0 0 0 442.287971 442.287971 442.671387 442.671387 0 0 0 442.287971-442.287971A442.671387 442.671387 0 0 0 512 69.712029z" p-id="4892"></path><path d="M367.730955 464.909524a107.635373 107.635373 0 0 1-76.369528-31.579549 108.053646 108.053646 0 0 1 0-152.739057 108.053646 108.053646 0 0 1 152.7042 0 108.053646 108.053646 0 0 1 0 152.739057 107.739941 107.739941 0 0 1-76.334672 31.579549z m0-146.220982a38.341616 38.341616 0 0 0-27.083123 11.188781 38.341616 38.341616 0 0 0 0 54.166247 38.341616 38.341616 0 0 0 54.131391 0 38.341616 38.341616 0 0 0 0-54.166247 38.13248 38.13248 0 0 0-27.048268-11.188781zM685.338961 293.104228L303.83988 674.603309l49.286405 49.286404L734.625366 342.425488l-49.286405-49.32126zM670.804003 767.982572a107.635373 107.635373 0 0 1-76.369528-31.579549 108.053646 108.053646 0 0 1 0-152.739057 108.053646 108.053646 0 0 1 152.739056 0 108.053646 108.053646 0 0 1 0 152.739057 107.705085 107.705085 0 0 1-76.369528 31.579549z m0-146.395262a38.027912 38.027912 0 0 0-27.083123 11.223637 38.341616 38.341616 0 0 0 0 54.131391 38.341616 38.341616 0 0 0 54.13139 0 38.341616 38.341616 0 0 0 0-54.131391 38.027912 38.027912 0 0 0-27.048267-11.049357z" p-id="4893"></path></svg>