<?xml version="1.0" standalone="no"?><!DOCTYPE svg PUBLIC "-//W3C//DTD SVG 1.1//EN" "http://www.w3.org/Graphics/SVG/1.1/DTD/svg11.dtd"><svg t="1753272670719" class="icon" viewBox="0 0 1024 1024" version="1.1" xmlns="http://www.w3.org/2000/svg" p-id="17490" xmlns:xlink="http://www.w3.org/1999/xlink" width="200" height="200"><path d="M430.8 307c0-22.3-17.6-40.5-39.4-40.5h-84.8c-21.7 0-39.4 18.1-39.4 40.5 0 22.3 17.6 40.5 39.4 40.5h84.8c21.7-0.1 39.4-18.2 39.4-40.5z m0 180.7c0-22.3-17.6-40.5-39.4-40.5h-104c-21.7 0-39.4 18.1-39.4 40.5 0 22.3 17.6 40.5 39.4 40.5h104c21.7-0.2 39.4-18.2 39.4-40.5z m0 180.6c0-22.3-17.6-40.5-39.4-40.5h-75.1c-21.7 0-39.4 18.1-39.4 40.5 0 22.3 17.6 40.5 39.4 40.5h75.1c21.7 0 39.4-18.2 39.4-40.5z" fill="#777777" p-id="17491"></path><path d="M896.6 64.3h-0.5v-0.1h-50.4v-0.1H577c-33.4 1.1-60.1 28.5-61.2 62.5v570.8c0 21.5 17.1 38.9 38.2 38.9 21.2 0 38.2-17.4 38.2-38.9V141.9h291.2v672.7H641c-0.4 0-0.7 0-1.1 0.1h-0.6c-0.5 0-1 0.1-1.5 0.2h-0.1c-5.8 0.8-11.2 2.8-15.9 5.9l-100.5 59.1-100.5-59.1c-4.7-3-10.1-5.1-15.9-5.9h-0.1c-0.5-0.1-1-0.1-1.5-0.2h-0.6c-0.4 0-0.7 0-1.1-0.1h-261V141.9h247.6l30.1 17.7c18.3 10.7 41.6 4.4 52.1-14.2s4.3-42.3-14-53.1l-35.5-20.9c-6.2-4.6-13.9-7.2-22.1-7.2H125.4c-34 1.2-61.2 29.6-61.2 64.6v702.9c1.8 31.9 26.2 57.7 57.2 60.7h268.5L494 953.6c17 8.3 36.8 8.4 53.9 0.4l104.9-61.7h249.6c30.5-2.8 54.7-27.6 57.4-58.7v-711c-3.2-32.7-30.3-58.3-63.2-58.3z" fill="#777777" p-id="17492"></path></svg>