<?xml version="1.0" standalone="no"?><!DOCTYPE svg PUBLIC "-//W3C//DTD SVG 1.1//EN" "http://www.w3.org/Graphics/SVG/1.1/DTD/svg11.dtd"><svg t="1771056672479" class="icon" viewBox="0 0 1024 1024" version="1.1" xmlns="http://www.w3.org/2000/svg" p-id="6117" xmlns:xlink="http://www.w3.org/1999/xlink" width="64" height="64"><path d="M760.896 94C862.574 94 945 176.426 945 278.104v517.792C945 897.574 862.574 980 760.896 980H243.104C141.426 980 59 897.574 59 795.896V278.104C59 176.426 141.426 94 243.104 94h517.792z m0 59.834H243.104c-67.946 0-123.156 54.53-124.254 122.215l-0.016 2.055v517.792c0 67.946 54.53 123.156 122.215 124.254l2.055 0.016h517.792c67.946 0 123.156-54.53 124.254-122.215l0.016-2.055V278.104c0-67.946-54.53-123.156-122.215-124.254l-2.055-0.016z m-348.481 275.7l87.521 87.522 86.737-86.735c11.56-11.56 30.23-11.676 41.933-0.347l0.352 0.347 0.024 0.023c11.56 11.56 11.676 30.23 0.347 41.933l-0.347 0.352-86.09 86.09h77.642c16.513 0 29.9 13.386 29.9 29.9v0.033c0 16.514-13.387 29.9-29.9 29.9h-88.618v46.025l120.836 0.001c16.513 0 29.9 13.387 29.9 29.9v0.034c0 16.513-13.387 29.9-29.9 29.9H531.916v73.35c0 16.348-13.12 29.632-29.405 29.896l-0.494 0.004h-0.034c-16.348 0-29.632-13.12-29.896-29.406l-0.004-0.494v-73.35H351.248c-16.513 0-29.9-13.387-29.9-29.9v-0.034c0-16.513 13.387-29.9 29.9-29.9h120.835V618.55l-88.617 0.001c-16.513 0-29.9-13.386-29.9-29.9v-0.033c0-16.514 13.387-29.9 29.9-29.9h73.515l-86.875-86.875c-11.677-11.677-11.677-30.609 0-42.285l0.024-0.024c11.677-11.677 30.608-11.677 42.285 0zM742.485 271.2c16.523 0 29.918 13.394 29.918 29.917 0 16.523-13.395 29.917-29.917 29.917h-478.67c-16.523 0-29.917-13.394-29.917-29.917 0-16.523 13.394-29.917 29.917-29.917h478.67z" fill="#333333" p-id="6118"></path></svg>