<?xml version="1.0" standalone="no"?><!DOCTYPE svg PUBLIC "-//W3C//DTD SVG 1.1//EN" "http://www.w3.org/Graphics/SVG/1.1/DTD/svg11.dtd"><svg t="1772675253886" class="icon" viewBox="0 0 1024 1024" version="1.1" xmlns="http://www.w3.org/2000/svg" p-id="8693" xmlns:xlink="http://www.w3.org/1999/xlink" width="64" height="64"><path d="M469.35 950.857H193.6a99.474 99.474 0 0 1-99.474-99.474V172.617A99.474 99.474 0 0 1 193.6 73.143h552.23a99.474 99.474 0 0 1 99.474 99.474v228.937a36.571 36.571 0 0 0 36.571 36.572 36.571 36.571 0 0 0 36.572-36.572V172.617A172.617 172.617 0 0 0 745.83 0H193.6A172.617 172.617 0 0 0 20.984 172.617v678.766A172.617 172.617 0 0 0 193.601 1024H469.35a36.571 36.571 0 1 0 0-73.143z" p-id="8694" fill="#8a8a8a"></path><path d="M606.127 431.543a36.571 36.571 0 0 0 36.571-36.572 36.571 36.571 0 0 0-36.571-36.571h-73.143l61.44-61.44a36.571 36.571 0 0 0 0-51.2 36.571 36.571 0 0 0-51.931 0l-76.8 77.531-77.532-77.531a36.571 36.571 0 0 0-51.931 0 35.109 35.109 0 0 0 0 51.2l61.44 61.44h-73.143a36.571 36.571 0 0 0-36.572 36.571 36.571 36.571 0 0 0 36.572 36.572H429.12v66.56H325.258a36.571 36.571 0 0 0 0 73.143h103.863v65.097a36.571 36.571 0 0 0 36.572 36.571 37.303 37.303 0 0 0 36.571-36.571v-65.097h103.863a36.571 36.571 0 0 0 0-73.143H502.264v-66.56z m378.88 169.691l-81.189-81.188a60.709 60.709 0 0 0-43.154-18.286 57.783 57.783 0 0 0-42.423 18.286L560.047 777.509a59.977 59.977 0 0 0-17.554 39.497l-5.852 99.474a54.126 54.126 0 0 0 16.092 40.96 52.663 52.663 0 0 0 36.571 14.629h5.12l95.086-9.509a60.709 60.709 0 0 0 37.303-16.823l258.194-258.194a60.709 60.709 0 0 0 0-86.309zM678.538 890.15l-67.291 6.582 4.388-73.142 245.029-245.03 63.634 62.903z" p-id="8695" fill="#8a8a8a"></path></svg>