<?xml version="1.0" standalone="no"?><!DOCTYPE svg PUBLIC "-//W3C//DTD SVG 1.1//EN" "http://www.w3.org/Graphics/SVG/1.1/DTD/svg11.dtd"><svg t="1750565077891" class="icon" viewBox="0 0 1024 1024" version="1.1" xmlns="http://www.w3.org/2000/svg" p-id="24846" xmlns:xlink="http://www.w3.org/1999/xlink" width="200" height="200"><path d="M774.383666 0c14.479245 0 28.324718 6.337717 38.513816 17.745607 10.23785 11.359138 15.990547 26.764665 15.990547 42.803963v481.373959l-1.17004-0.146255a73.1275 73.1275 0 0 0-54.748122 20.719459l-5.362683 5.8502-3.168858 3.705127-3.363865 3.21761-1.560054 0.975033a18.915647 18.915647 0 0 1-22.52327-4.436402l-2.63259-3.412616-6.581475-6.873986-7.31275-5.411435c-21.694492-14.966762-46.119077-18.281875-67.228549-9.555326a70.2024 70.2024 0 0 0-5.362683 2.388831l-7.215247 3.900134-8.7753 4.97267-12.187917 7.60526-13.114198 8.921555a243.61208 243.61208 0 0 0-13.942977 10.579112l-5.996455 5.313931-6.240213 6.825234-5.021422 7.556508-4.290146 7.946522a93.651952 93.651952 0 0 0-7.410254 65.327233l1.17004 4.09514 0.975034 5.655194v2.583838a30.567295 30.567295 0 0 1-3.168859 10.579112 21.206975 21.206975 0 0 1-12.041662 10.82287l-3.51012 0.731275-4.97267 1.657557-3.948885 1.46255-7.702763 4.192643a85.99794 85.99794 0 0 0-41.048903 63.18216l-0.828779 9.506575a324.149833 324.149833 0 0 0-0.731275 13.650467l-0.243758 16.478063 0.243758 16.185554a323.906075 323.906075 0 0 0 1.998819 26.91092l2.242576 9.750333 3.022604 7.995274 3.900133 8.287783c11.212883 21.35323 28.324718 35.97873 47.922888 40.9514l3.656375 0.926282 4.241396 1.75506 1.608805 1.072537a27.885953 27.885953 0 0 1 8.434038 26.423403l-1.267543 4.533905-1.560054 7.751515H54.614055c-14.479245 0-28.324718-6.337717-38.513817-17.696855A64.108442 64.108442 0 0 1 0.109692 914.483768V60.54957C0.109692 44.46152 5.862388 29.104745 16.051487 17.745607 26.289337 6.337717 40.13481 0 54.614055 0h719.769611zM390.123027 325.027363H195.165111c-25.789632 0-47.09411 22.377015-48.605412 50.994244-1.46255 28.617228 17.306842 53.578082 42.901467 56.941947l5.703945 0.390013H390.123027c26.91092 0 48.751667-24.229578 48.751667-54.163102 0-14.381742-5.118925-28.129712-14.284238-38.31881A46.411587 46.411587 0 0 0 390.123027 325.027363z m195.055419-216.701159h-390.013335c-25.789632 0-47.09411 22.425767-48.605412 50.994243-1.46255 28.617228 17.306842 53.626834 42.901467 56.990699l5.703945 0.390013h390.013335c26.862168 0 48.702915-24.27833 48.702916-54.211853 0-29.884772-21.840747-54.11435-48.751667-54.11435h0.048751z" fill="#ffffff" p-id="24847"></path><path d="M834.250713 585.263761l4.143891 1.121289s8.141528 3.21761 27.057175 14.820506 25.643377 17.745607 25.643377 17.745607c6.43522 5.8502 10.042843 16.770573 9.165314 26.03339l-0.828779 4.38765-2.242576 7.166495a80.927767 80.927767 0 0 0 7.60526 55.869411c7.702763 14.33299 19.646922 25.545873 34.028663 32.029845l7.117743 2.730093 7.117744 1.75506c8.7753 2.730093 15.941795 9.555327 19.30566 18.525634l1.121288 4.38765s1.560053 9.165313 1.657557 32.614865l-0.195007 13.552963-0.682523 13.065447a31.29857 31.29857 0 0 1-17.063083 27.447188l-4.09514 1.413799-6.678979 1.608805c-17.5506 5.606442-32.419858 18.13562-41.438917 35.003697a79.952734 79.952734 0 0 0-8.970306 47.67913l1.316295 7.849018 2.04757 7.31275a33.589899 33.589899 0 0 1-5.362684 27.20343l-2.9251 3.315114s-6.72773 6.045207-25.594625 17.696855l-15.454278 9.019058-11.7004 5.801448a27.934705 27.934705 0 0 1-25.643377-4.38765l-3.21761-3.022603-4.728912-5.460187a67.764817 67.764817 0 0 0-92.238154-5.362683l-5.752696 5.313932-4.728912 5.411435a28.470973 28.470973 0 0 1-24.717095 8.580293l-4.143892-1.121288s-6.43522-2.437583-21.158223-11.212884l-5.898952-3.607623a200.223096 200.223096 0 0 1-25.643377-17.794358 33.102382 33.102382 0 0 1-9.165313-25.984639l0.828778-4.436402 1.998818-7.02024a80.684009 80.684009 0 0 0-7.60526-55.86941 72.24997 72.24997 0 0 0-34.321173-32.273603l-7.166495-2.583839-6.678978-1.706308a30.226033 30.226033 0 0 1-19.305661-18.525633l-1.17004-4.38765s-1.218792-7.215247-1.511301-25.253364V804.402504c0-23.4008 1.560053-32.566113 1.560053-32.566113a31.249818 31.249818 0 0 1 16.38056-21.548237l4.046389-1.46255 6.971488-1.608805c17.5506-5.55769 32.371107-18.038117 41.390165-34.857442 7.800267-14.527997 10.920373-31.347322 8.872803-47.874137l-1.316295-7.89777-2.096321-7.263998a33.297389 33.297389 0 0 1 5.362683-27.057176l2.973852-3.266361s6.630227-6.093958 25.545873-17.84311l11.066629-6.532724 8.044025-4.38765c5.508938-2.827597 8.044025-3.900133 8.044025-3.900133a27.983457 27.983457 0 0 1 25.643377 4.436402l3.168858 3.022603 4.875167 5.606442c25.107108 25.643377 64.3522 27.934705 91.945643 5.362683l5.703945-5.216428 4.97267-5.703945a28.568477 28.568477 0 0 1 24.717096-8.531542v-0.097503z m-78.490184 125.633046c-48.361654 0-87.46049 41.82893-87.460491 93.456945 0 51.579264 39.19634 93.505697 87.509243 93.505698 48.26415 0 87.362987-41.877682 87.46049-93.456946 0.097503-51.628015-39.19634-93.505697-87.46049-93.505697z" fill="#ffffff" p-id="24848"></path></svg>