<?xml version="1.0" standalone="no"?><!DOCTYPE svg PUBLIC "-//W3C//DTD SVG 1.1//EN" "http://www.w3.org/Graphics/SVG/1.1/DTD/svg11.dtd"><svg t="1746232694597" class="icon" viewBox="0 0 1024 1024" version="1.1" xmlns="http://www.w3.org/2000/svg" p-id="15141" xmlns:xlink="http://www.w3.org/1999/xlink" width="200" height="200"><path d="M603.793 68.65h-193.85c-23.776 0-42.785 21.154-42.785 47.303 0 26.209 19.044 47.426 42.786 47.426h195.048c22.58 0 41.618-21.217 41.618-47.426 0.005-26.15-19.01-47.303-42.817-47.303z m210.488 31.572h-96.532c0.981 5.183 1.548 10.425 1.548 15.73 0.03 39.819-28.855 79.007-63.214 79.007H359.519c-36.16 0-65.084-39.188-65.084-79.006 0.035-5.306 0.602-10.548 1.583-15.731H198.32c-78.534 0-97.828 44.523-97.828 108.75v636.21c0 68.996 27.629 107.611 103.758 107.611h604.094c76.13 0 113.138-30.276 113.138-107.576V208.971c0.006-64.221-34.642-108.744-107.2-108.744v-0.005zM715.103 728.38H295.32c-15.472 0-30.918-18.98-30.918-34.477 0-15.445 13.073-28.675 28.546-28.675h418.583c15.469 0 28.54 12.026 29.714 28.675 0 15.502-10.675 34.477-26.143 34.477z m1.706-168.454H297.022c-15.475 0-25.327-16.637-25.327-32.146 0-15.503 13.079-31.007 28.546-31.007h418.584c15.474 0 28.546 14.364 29.713 31.007 0.001 15.503-16.29 32.146-31.73 32.146z m0-173.01H297.022c-15.475 0-25.327-16.644-25.327-32.146 0-15.504 13.079-31.007 28.546-31.007h418.584c15.474 0 28.546 14.37 29.713 31.007 0.001 15.502-16.29 32.145-31.73 32.145z m0 0" p-id="15142" fill="#ffffff"></path></svg>