<?xml version="1.0" standalone="no"?><!DOCTYPE svg PUBLIC "-//W3C//DTD SVG 1.1//EN" "http://www.w3.org/Graphics/SVG/1.1/DTD/svg11.dtd"><svg t="1750547126547" class="icon" viewBox="0 0 1024 1024" version="1.1" xmlns="http://www.w3.org/2000/svg" p-id="5280" xmlns:xlink="http://www.w3.org/1999/xlink" width="200" height="200"><path d="M473.6 759.466667H196.266667c-25.6 0-46.933333-21.333333-46.933334-46.933334 0-25.6 21.333333-46.933333 46.933334-46.933333h277.333333c25.6 0 46.933333 21.333333 46.933333 46.933333 0 29.866667-21.333333 46.933333-46.933333 46.933334z m-277.333333-281.6h375.466666c25.6 0 46.933333 21.333333 46.933334 46.933333 0 25.6-21.333333 46.933333-46.933334 46.933333H196.266667c-25.6 0-46.933333-21.333333-46.933334-46.933333 0-25.6 21.333333-46.933333 46.933334-46.933333z m0-196.266667h477.866666c25.6 0 46.933333 21.333333 46.933334 46.933333 0 25.6-21.333333 46.933333-46.933334 46.933334H196.266667c-25.6 0-46.933333-21.333333-46.933334-46.933334 0-25.6 21.333333-46.933333 46.933334-46.933333z m337.066666 499.2c0-145.066667 119.466667-264.533333 264.533334-264.533333 21.333333 0 38.4 0 59.733333 8.533333V149.333333c0-85.333333-72.533333-149.333333-162.133333-149.333333H162.133333C72.533333 0 0 64 0 149.333333v721.066667c0 85.333333 72.533333 149.333333 162.133333 149.333333h533.333334c-89.6-34.133333-162.133333-128-162.133334-238.933333z" fill="#ffffff" p-id="5281"></path><path d="M814.933333 580.266667c-115.2 0-209.066667 93.866667-209.066666 209.066666s93.866667 209.066667 209.066666 209.066667 209.066667-93.866667 209.066667-209.066667c0-110.933333-93.866667-209.066667-209.066667-209.066666z m85.333334 341.333333c-8.533333 0-21.333333-4.266667-25.6-12.8L819.2 853.333333c-34.133333 12.8-76.8 4.266667-98.133333-21.333333-29.866667-29.866667-34.133333-81.066667-12.8-119.466667 0-4.266667 4.266667-4.266667 8.533333-4.266666s8.533333 0 8.533333 4.266666l34.133334 34.133334 12.8-12.8-34.133334-34.133334c-4.266667-4.266667-4.266667-8.533333-4.266666-8.533333 0-4.266667 4.266667-8.533333 4.266666-8.533333 38.4-25.6 89.6-21.333333 119.466667 12.8 25.6 25.6 34.133333 64 21.333333 98.133333l55.466667 55.466667c12.8 12.8 12.8 38.4 0 55.466666l-8.533333 8.533334c-8.533333 4.266667-17.066667 8.533333-25.6 8.533333z" fill="#ffffff" p-id="5282"></path></svg>