<svg t="1758004080462" class="icon" viewBox="0 0 1024 1024" version="1.1" xmlns="http://www.w3.org/2000/svg" p-id="1651" width="64" height="64"><path d="M511.488 67.067977l-382.949869 114.679961 2.559999 469.472839c0.511 2.046999 1.023 4.094999 2.046999 7.166998 2.559999 8.191997 6.143998 17.406994 11.263997 27.645991 13.822995 29.69399 34.812988 59.89998 63.482978 88.057969 2.559999 2.559999 5.631998 5.119998 8.191997 7.679998 25.085991 23.549992 72.698975 54.267981 135.669954 89.593969 45.565984 25.597991 86.52297 46.588984 147.446949 76.794974 0.512 0 6.142998 3.071999 12.286996 6.142998 35.325988-16.382994 88.05797-42.492985 137.206953-68.602977 74.746974-40.444986 132.598955-76.794974 161.269945-103.929964a61.919979 61.919979 0 0 0 8.189997-8.189997c28.66999-28.15899 49.149983-58.36498 63.483979-88.05897 4.607998-10.239997 8.191997-19.453993 11.263996-27.645991 0.512-1.535999 1.024-2.559999 1.023999-4.095998l2.56-472.543839L511.487 67.067977z m0-67.067977l421.859856 126.455957c15.358995 4.606998 26.109991 18.429994 26.109991 34.300988l-2.559999 502.238828c-1.024 3.071999-17.918994 86.52197-104.439964 166.388944-76.283974 71.162976-282.093904 168.435942-322.53989 186.866936l-11.773996 5.631998c-5.119998 3.071999-11.775996 2.559999-16.894994 0l-7.679998-4.095999c-4.094999-2.559999-12.798996-6.143998-23.549992-11.774996-69.627976-34.301988-231.919921-115.191961-297.963898-176.627939-86.52297-79.866973-103.416965-163.316944-104.440964-166.389944l-1.024-5.629998-2.559999-496.60783c0-15.869995 10.239997-29.69399 26.109991-34.300988L511.488 0z" p-id="1652" fill="#8a8a8a"></path><path d="M512 480.223836c52.731982 0 95.737967-43.004985 95.737967-95.737967S564.731982 288.749901 512 288.749901s-95.737967 42.492985-95.737967 95.224968 43.005985 96.249967 95.737967 96.249967z m31.741989 127.479956h96.249967c17.917994 0 31.740989 14.333995 31.740989 31.740989s-14.334995 31.741989-31.741989 31.74199h-95.736967v96.761967c0 17.406994-14.334995 31.741989-31.741989 31.741989s-31.741989-14.334995-31.741989-31.741989V540.635815C407.560036 525.78882 352.780054 461.279842 352.780054 383.973869c0-88.56997 71.674976-159.732945 159.732946-159.732946s159.732945 71.674976 159.732945 159.732946c0 77.306974-54.779981 141.814952-127.990956 156.661946l-0.512 67.066977z" p-id="1653" fill="#8a8a8a"></path></svg>