<?xml version="1.0" standalone="no"?><!DOCTYPE svg PUBLIC "-//W3C//DTD SVG 1.1//EN" "http://www.w3.org/Graphics/SVG/1.1/DTD/svg11.dtd"><svg t="1748909732869" class="icon" viewBox="0 0 1024 1024" version="1.1" xmlns="http://www.w3.org/2000/svg" p-id="10028" xmlns:xlink="http://www.w3.org/1999/xlink" width="200" height="200"><path d="M384 469.333333H170.666667a85.333333 85.333333 0 0 1-85.333334-85.333333V170.666667a85.333333 85.333333 0 0 1 85.333334-85.333334h213.333333a85.333333 85.333333 0 0 1 85.333333 85.333334v213.333333a85.333333 85.333333 0 0 1-85.333333 85.333333zM170.666667 170.666667v213.333333h213.333333V170.666667zM748.373333 486.826667a85.333333 85.333333 0 0 1-60.586666-24.746667L567.04 341.333333a85.333333 85.333333 0 0 1 0-120.746666l120.746667-120.746667a85.333333 85.333333 0 0 1 120.746666 0l120.746667 120.746667a85.333333 85.333333 0 0 1 0 120.746666L810.666667 462.08a85.333333 85.333333 0 0 1-60.16 24.746667z m0-326.4l-120.746666 120.746666 120.746666 120.746667 120.32-120.746667zM384 938.666667H170.666667a85.333333 85.333333 0 0 1-85.333334-85.333334v-213.333333a85.333333 85.333333 0 0 1 85.333334-85.333333h213.333333a85.333333 85.333333 0 0 1 85.333333 85.333333v213.333333a85.333333 85.333333 0 0 1-85.333333 85.333334z m-213.333333-298.666667v213.333333h213.333333v-213.333333zM853.333333 938.666667h-213.333333a85.333333 85.333333 0 0 1-85.333333-85.333334v-213.333333a85.333333 85.333333 0 0 1 85.333333-85.333333h213.333333a85.333333 85.333333 0 0 1 85.333334 85.333333v213.333333a85.333333 85.333333 0 0 1-85.333334 85.333334z m-213.333333-298.666667v213.333333h213.333333v-213.333333z" p-id="10029" fill="#ffffff"></path></svg>