<?xml version="1.0" standalone="no"?><!DOCTYPE svg PUBLIC "-//W3C//DTD SVG 1.1//EN" "http://www.w3.org/Graphics/SVG/1.1/DTD/svg11.dtd"><svg t="1771253356475" class="icon" viewBox="0 0 1024 1024" version="1.1" xmlns="http://www.w3.org/2000/svg" p-id="82200" xmlns:xlink="http://www.w3.org/1999/xlink" width="64" height="64"><path d="M988.208 403.9c47.146 47.826 47.14 117.5 1.73 163.65a36.888 36.888 0 0 1-12.908 8.504l-90.792 35.356v279.682c0 64.038-51.258 116.15-114.744 116.15H246.018c-63.484 0-114.74-52.116-114.74-116.15v-290.94l-84.722-34.148a36.89 36.89 0 0 1-12.508-8.348c-45.398-46.15-45.398-115.83 0-161.98 0.42-0.428 131.67-115.724 393.748-345.888 45.448-45.088 118.254-45.05 163.652 0.114l396.76 354zM541.58 104.458c-18.52-18.72-45.504-18.72-62.282-1.66-0.632 0.64-1.286 1.26-1.964 1.854L85.77 448.49c-14.674 15.586-15.862 35.792-3.568 52.128l99.734 40.2c13.978 5.634 23.136 19.224 23.136 34.33v315.944c0 23.392 18.448 42.15 40.946 42.15h525.476c22.5 0 40.95-18.756 40.95-42.15V586.086c0-15.266 9.35-28.966 23.54-34.492l105.928-41.248c12.198-16.34 10.94-36.51-3.772-52.066L541.578 104.456z m144.56 259.734c13.596 13.334 13.596 36.614 0 50l-86 86h60c19.44-0.95 35.906 15.48 36 36-0.094 20.04-16.56 36.468-36 36h-112v50h112c19.34 0.708 35.84 17.138 36 38-0.16 19.664-16.66 36.094-36 36h-112v96c0.812 19.572-15.652 36-36 36-20.268 0-36.734-16.428-36-36v-96h-112c-19.568 0.094-36-16.336-36-36 0-20.862 16.432-37.292 36-38h112v-50h-112c-19.466 0.468-35.896-15.96-36-36 0.104-20.52 16.534-36.95 36-36h60l-86-86c-13.518-13.694-13.518-36.94 0-52 15.246-13.604 38.542-13.57 52 0l122 122 122-120c13.57-15.332 36.868-15.298 52 0z" fill="#8a8a8a" p-id="82201"></path></svg>