<?xml version="1.0" standalone="no"?><!DOCTYPE svg PUBLIC "-//W3C//DTD SVG 1.1//EN" "http://www.w3.org/Graphics/SVG/1.1/DTD/svg11.dtd"><svg t="1750568302953" class="icon" viewBox="0 0 1024 1024" version="1.1" xmlns="http://www.w3.org/2000/svg" p-id="74198" xmlns:xlink="http://www.w3.org/1999/xlink" width="200" height="200"><path d="M835.734 564.107V188.036c0-11.387-9.276-20.893-20.747-20.893H731.27v83.446c0 23.149-18.595 41.91-41.598 41.91H313.204c-22.961 0-41.577-18.74-41.577-41.91v-83.446H187.91c-11.282 0-20.747 9.36-20.747 20.893v710.356c0 11.387 9.277 20.893 20.747 20.893h292.646a41.786 41.786 0 1 1 0 83.571H125.315a41.827 41.827 0 0 1-41.723-41.89V125.462a41.786 41.786 0 0 1 41.723-41.89h146.312V41.91C271.627 18.761 290.222 0 313.225 0h376.468c22.961 0 41.577 18.74 41.577 41.911v41.66h146.312c23.045 0 41.723 18.783 41.723 41.89v438.646a41.786 41.786 0 0 1-83.57 0zM355.2 104.255v83.99c0 11.26 9.401 20.683 21.039 20.683h250.421a20.851 20.851 0 0 0 21.04-20.683v-83.99c0-11.261-9.402-20.684-21.04-20.684H376.238a20.851 20.851 0 0 0-21.04 20.684zM229.842 438.75a41.786 41.786 0 0 1 41.723-41.786h459.768c23.044 0 41.723 18.553 41.723 41.786a41.786 41.786 0 0 1-41.723 41.785H271.565a41.66 41.66 0 0 1-41.723-41.785z m0 334.285c0-23.086 18.845-41.786 41.973-41.786h166.767a41.786 41.786 0 1 1 0 83.572H271.836a41.786 41.786 0 0 1-41.994-41.786z m0-167.143c0-23.086 18.657-41.785 41.618-41.785h230.156c22.982 0 41.618 18.553 41.618 41.785 0 23.087-18.657 41.786-41.618 41.786H271.46c-22.982 0-41.618-18.553-41.618-41.786zM924.215 782.71c8.796 0 16.046 7.208 15.983 16.087v32.133a16.087 16.087 0 0 1-16.045 16.088h-19.305c-8.796 0-18.177 6.894-20.851 15.335l-11.053 26.91c-4.157 7.793-2.465 19.326 3.76 25.552l13.707 13.664c6.267 6.268 6.267 16.484 0 22.752l-22.774 22.732a16.087 16.087 0 0 1-22.71 0l-13.622-13.685c-6.247-6.226-17.76-7.919-25.573-3.72l-26.91 11.074c-8.42 2.612-15.356 11.993-15.356 20.83v19.222a16.15 16.15 0 0 1-16.088 16.066h-32.133a16.13 16.13 0 0 1-16.087-16.066V988.46c0-8.837-6.895-18.218-15.357-20.83l-26.951-11.073c-7.793-4.2-19.285-2.507-25.49 3.719l-13.705 13.685a16.087 16.087 0 0 1-22.71 0l-22.753-22.732a16.13 16.13 0 0 1 0-22.752l13.685-13.664c6.267-6.226 7.939-17.759 3.781-25.552l-11.115-26.91c-2.632-8.44-11.992-15.335-20.83-15.377h-19.284a16.087 16.087 0 0 1-16.088-16.067v-32.112c0-8.88 7.23-16.087 16.088-16.087h19.284c8.838 0 18.24-6.895 20.851-15.336l11.094-26.952c4.179-7.813 2.486-19.284-3.781-25.551l-13.664-13.706a16.087 16.087 0 0 1 0-22.71l22.731-22.711c6.247-6.268 16.485-6.268 22.71 0l13.727 13.685c6.268 6.226 17.696 7.939 25.49 3.76l26.93-11.031c8.462-2.633 15.357-11.993 15.357-20.893V621.98c0-8.838 7.25-16.088 16.087-16.088h32.133c8.817 0 16.088 7.25 16.088 16.088v19.284c0 8.859 6.936 18.24 15.356 20.851l26.868 11.073c7.814 4.179 19.326 2.466 25.552-3.76l13.706-13.664a16.087 16.087 0 0 1 22.731 0l22.773 22.731c6.268 6.226 6.268 16.443 0 22.731l-13.705 13.685c-6.247 6.247-7.94 17.738-3.761 25.51l11.052 26.952c2.654 8.44 12.014 15.336 20.83 15.336h19.347z m-113.97 30.712a80.354 80.354 0 1 0-160.729 0 80.354 80.354 0 0 0 80.375 80.354 80.333 80.333 0 0 0 80.354-80.333z" p-id="74199" fill="#ffffff"></path></svg>