<?xml version="1.0" standalone="no"?><!DOCTYPE svg PUBLIC "-//W3C//DTD SVG 1.1//EN" "http://www.w3.org/Graphics/SVG/1.1/DTD/svg11.dtd"><svg t="1746232176917" class="icon" viewBox="0 0 1024 1024" version="1.1" xmlns="http://www.w3.org/2000/svg" p-id="2752" xmlns:xlink="http://www.w3.org/1999/xlink" width="200" height="200"><path d="M926.549333 451.413333l0.042667-0.042666a84.309333 84.309333 0 0 1 54.613333 84.821333 84.309333 84.309333 0 0 1-64.298666 77.781333 83.498667 83.498667 0 0 0-52.650667 121.173334 82.645333 82.645333 0 0 1-0.981333 84.096 86.698667 86.698667 0 0 1-73.813334 42.922666c-13.013333 0-25.856-2.986667-37.589333-8.661333a83.925333 83.925333 0 0 0-118.442667 59.093333c-9.514667 47.616-49.365333 68.906667-84.650666 68.906667a83.626667 83.626667 0 0 1-77.738667-50.133333 84.266667 84.266667 0 0 0-128.853333-30.549334 84.736 84.736 0 0 1-53.333334 19.2 88.106667 88.106667 0 0 1-69.546666-34.730666 82.688 82.688 0 0 1-13.696-74.112 83.626667 83.626667 0 0 0-78.933334-105.898667 85.504 85.504 0 0 1-46.762666-156.117333 83.413333 83.413333 0 0 0 7.808-131.712 83.456 83.456 0 0 1-23.808-94.293334A84.821333 84.821333 0 0 1 152.746667 267.946667a83.754667 83.754667 0 0 0 90.965333-95.914667 83.328 83.328 0 0 1 18.858667-68.266667 89.258667 89.258667 0 0 1 66.730666-30.592c22.912 0 43.818667 8.96 60.501334 25.898667a84.096 84.096 0 0 0 131.626666-15.232A83.797333 83.797333 0 0 1 594.133333 42.666667c39.808 0 82.304 27.093333 86.357334 78.933333a83.84 83.84 0 0 0 110.634666 72.618667c9.216-3.157333 18.858667-4.778667 28.586667-4.821334 31.616 0 60.672 18.005333 75.733333 47.189334a83.498667 83.498667 0 0 1-6.784 88.362666 83.456 83.456 0 0 0 37.888 126.421334zM374.954667 695.125333l321.621333-321.92A36.693333 36.693333 0 1 0 644.693333 321.28l-321.621333 321.834667a36.693333 36.693333 0 0 0 51.882667 52.010666z m188.16-82.816a93.44 93.44 0 0 0 186.794666 0.170667 93.44 93.44 0 0 0-186.794666-0.170667z m135.125333 0a41.728 41.728 0 1 1-83.456 0.085334 41.728 41.728 0 0 1 83.456-0.085334zM363.178667 310.613333a93.44 93.44 0 0 0-35.669334 179.882667 93.482667 93.482667 0 1 0 35.669334-179.882667z m0 135.082667a41.728 41.728 0 1 1 0-83.541333 41.728 41.728 0 0 1 0 83.541333z" fill="#ffffff" p-id="2753"></path></svg>