<?xml version="1.0" standalone="no"?><!DOCTYPE svg PUBLIC "-//W3C//DTD SVG 1.1//EN" "http://www.w3.org/Graphics/SVG/1.1/DTD/svg11.dtd"><svg t="1763966239945" class="icon" viewBox="0 0 1024 1024" version="1.1" xmlns="http://www.w3.org/2000/svg" p-id="54907" xmlns:xlink="http://www.w3.org/1999/xlink" width="64" height="64"><path d="M490.666667 48.384a42.666667 42.666667 0 0 1 42.666666 0l369.493334 213.333333a42.666667 42.666667 0 0 1 21.333333 36.949334v426.666666a42.666667 42.666667 0 0 1-21.333333 36.949334l-369.493334 213.333333a42.666667 42.666667 0 0 1-42.666666 0l-369.493334-213.333333a42.666667 42.666667 0 0 1-21.333333-36.949334V298.666667a42.666667 42.666667 0 0 1 21.333333-36.949334l369.493334-213.333333z m21.333333 86.186667L185.173333 323.328v377.429333L512 889.386667l326.826667-188.672V323.285333L512 134.613333z" fill="#8a8a8a" p-id="54908"></path><path d="M500.181333 215.04a42.666667 42.666667 0 0 1 37.290667 6.741333l213.333333 158.976a42.666667 42.666667 0 0 1 17.194667 34.218667v227.072a42.666667 42.666667 0 0 1-27.136 39.765333l-213.333333 83.285334a42.666667 42.666667 0 0 1-31.061334 0l-213.333333-83.285334a42.666667 42.666667 0 0 1-18.517333-65.450666l127.701333-169.386667 79.872-206.378667a42.666667 42.666667 0 0 1 27.989333-25.6z m31.36 108.714667l-61.824 159.573333a42.794667 42.794667 0 0 1-5.717333 10.325333l-97.365333 129.152L512 679.552l170.666667-66.645333v-176.512l-151.125334-112.64z" fill="#8a8a8a" p-id="54909"></path></svg>