<?xml version="1.0" standalone="no"?><!DOCTYPE svg PUBLIC "-//W3C//DTD SVG 1.1//EN" "http://www.w3.org/Graphics/SVG/1.1/DTD/svg11.dtd"><svg t="1746692806994" class="icon" viewBox="0 0 1024 1024" version="1.1" xmlns="http://www.w3.org/2000/svg" p-id="4064" xmlns:xlink="http://www.w3.org/1999/xlink" width="200" height="200"><path d="M846.604102 562.535331c-13.163055 0-23.833135-10.675665-23.833135-23.834996V77.231942h-714.938182v834.094545H512c13.163055 0 23.833135 10.666356 23.833135 23.825688v23.833134c0 13.163055-10.668218 23.831273-23.833135 23.831273H60.175825c-13.163055 0-23.833135-10.666356-23.833134-23.831273V29.565673c0-13.161193 10.668218-23.831273 23.833134-23.831273H870.437236c13.163055 0 23.833135 10.668218 23.833135 23.831273v509.134662c0 13.157469-10.668218 23.834996-23.833135 23.834996h-23.833134zM238.910371 279.769833c-13.163055 0-23.833135-10.666356-23.833135-23.833135v-23.831273c0-13.157469 10.668218-23.825687 23.833135-23.825687H691.702691c13.163055 0 23.833135 10.666356 23.833134 23.825687v23.831273c0 13.164916-10.668218 23.833135-23.833134 23.833135H238.910371z m11.911913 154.901411c-13.163055 0-23.833135-10.666356-23.833135-23.831273v-23.825687c0-13.164916 10.668218-23.833135 23.833135-23.833135h95.323229c13.163055 0 23.833135 10.666356 23.833134 23.833135v23.825687c0 13.163055-10.668218 23.831273-23.833134 23.831273h-95.323229z m0 0" p-id="4065" fill="#ffffff"></path><path d="M825.537629 627.07712c-83.031505 0-157.958516 52.376669-186.44992 130.332858l68.200262 24.92416c18.065222-49.433135 65.588131-82.646109 118.249658-82.646109 69.393687 0 125.851462 56.455913 125.851462 125.851462S894.933178 951.389091 825.537629 951.389091a125.7472 125.7472 0 0 1-79.847796-28.521193l41.319331 0.014895 0.026065-72.610909-160.483142-0.057717 0.214109 163.043142 72.610909-0.094953-0.044683-34.384058C734.142836 1007.444713 778.439215 1024 825.537629 1024 934.971578 1024 1024 934.971578 1024 825.537629s-89.028422-198.460509-198.462371-198.460509z" p-id="4066" fill="#ffffff"></path></svg>