<?xml version="1.0" standalone="no"?><!DOCTYPE svg PUBLIC "-//W3C//DTD SVG 1.1//EN" "http://www.w3.org/Graphics/SVG/1.1/DTD/svg11.dtd"><svg t="1771249818704" class="icon" viewBox="0 0 1024 1024" version="1.1" xmlns="http://www.w3.org/2000/svg" p-id="7053" xmlns:xlink="http://www.w3.org/1999/xlink" width="64" height="64"><path d="M393.8816 869.2736H194.9696a39.68 39.68 0 0 1-39.68-39.5776V188.9792a39.68 39.68 0 0 1 39.68-39.68H727.04a39.68 39.68 0 0 1 39.5776 39.68v181.504a33.0752 33.0752 0 0 0 66.1504 0V188.9792A105.8816 105.8816 0 0 0 727.04 83.2H194.56a105.9328 105.9328 0 0 0-105.4208 105.7792v640.7168a105.8816 105.8816 0 0 0 105.8304 105.728h198.912a33.0752 33.0752 0 0 0 0-66.1504z" fill="#8a8a8a" p-id="7054"></path><path d="M707.7888 492.288a223.488 223.488 0 1 0 223.488 223.488 223.744 223.744 0 0 0-223.488-223.488z m0 380.8256A157.3376 157.3376 0 1 1 865.28 715.776a157.5424 157.5424 0 0 1-157.4912 157.3376z" fill="#8a8a8a" p-id="7055"></path><path d="M769.9968 682.7008h-29.1328v-24.8832a33.0752 33.0752 0 1 0-66.1504 0v52.2752a34.5088 34.5088 0 0 0-0.512 5.6832 33.0752 33.0752 0 0 0 33.0752 33.0752h62.72a33.0752 33.0752 0 1 0 0-66.1504zM322.9696 199.936a76.8 76.8 0 0 0-76.8 76.8v95.2832a76.8 76.8 0 0 0 76.8 76.8H599.04a76.8 76.8 0 0 0 76.8-76.8V276.8384a76.8 76.8 0 0 0-76.8-76.8z m286.976 76.8v95.2832a10.752 10.752 0 0 1-10.9056 10.7008H322.9696A10.752 10.752 0 0 1 312.32 372.0192V276.8384A10.752 10.752 0 0 1 322.9696 266.24H599.04a10.752 10.752 0 0 1 10.9056 10.5984zM408.2176 564.8384H282.4192a33.0752 33.0752 0 1 0 0 66.0992h125.7984a33.0752 33.0752 0 1 0 0-66.0992zM404.7872 696.6272H279.0912a33.0752 33.0752 0 0 0 0 66.1504h125.696a33.0752 33.0752 0 0 0 0-66.1504z" fill="#8a8a8a" p-id="7056"></path></svg>