<?xml version="1.0" standalone="no"?><!DOCTYPE svg PUBLIC "-//W3C//DTD SVG 1.1//EN" "http://www.w3.org/Graphics/SVG/1.1/DTD/svg11.dtd"><svg t="1771732231174" class="icon" viewBox="0 0 1024 1024" version="1.1" xmlns="http://www.w3.org/2000/svg" p-id="73384" xmlns:xlink="http://www.w3.org/1999/xlink" width="64" height="64"><path d="M192 960a128 128 0 0 1-128-128V576a64 64 0 1 0 0-128V192a128 128 0 0 1 128-128h640a128 128 0 0 1 128 128v256a64 64 0 0 0 0 128v256a128 128 0 0 1-128 128zM128 192v209.216a127.488 127.488 0 0 1 0 221.44V832a64 64 0 0 0 64 64h640a64 64 0 0 0 64-64V622.784a127.552 127.552 0 0 1 0-221.184V192a64 64 0 0 0-64-64H192a64 64 0 0 0-64 64z m128 608L426.688 512 256 224h512v64H369.344L502.144 512l-132.8 224H768v64z" p-id="73385" fill="#8a8a8a"></path></svg>