<?xml version="1.0" standalone="no"?><!DOCTYPE svg PUBLIC "-//W3C//DTD SVG 1.1//EN" "http://www.w3.org/Graphics/SVG/1.1/DTD/svg11.dtd"><svg t="1763965355362" class="icon" viewBox="0 0 1137 1024" version="1.1" xmlns="http://www.w3.org/2000/svg" p-id="26204" width="71.0625" height="64" xmlns:xlink="http://www.w3.org/1999/xlink"><path d="M467.918285 0c165.414509 0 299.543606 135.721809 299.543606 303.184091A303.752916 303.752916 0 0 1 627.417007 559.724475c102.388623 43.572048 185.664704 124.004 233.446062 225.141207l191.12543-277.01811a40.841684 40.841684 0 0 1 57.223864-10.352627c18.429952 13.082991 23.094323 38.680147 10.580158 57.451394l-0.341295 0.568826-219.339185 317.859793a41.63804 41.63804 0 0 1-6.370848 7.280969c7.394734 32.650594 11.262749 66.66637 11.262749 101.592268A41.41051 41.41051 0 0 1 863.820962 1023.886235a41.41051 41.41051 0 0 1-41.069214-40.95545v-0.68259c0-206.938785-165.755805-374.628597-370.305522-374.628597C250.058047 607.505833 85.553659 772.010221 82.368235 976.104877v6.143318A41.41051 41.41051 0 0 1 41.07149 1023.886235 41.41051 41.41051 0 0 1 0.002276 982.248195a457.904677 457.904677 0 0 1 296.927008-430.145984 303.752916 303.752916 0 0 1-128.554605-248.91812C168.374679 135.721809 302.617541 0 467.918285 0z m0 83.27608c-120.02222 0-217.291412 98.406844-217.291412 219.908011 0 121.387401 97.269192 219.794245 217.291412 219.794245s217.291412-98.406844 217.291412-219.794245A218.542829 218.542829 0 0 0 467.918285 83.27608z m628.552383 127.416954c22.753027 0 41.18298 18.657483 41.18298 41.751805 0 22.753027-18.088657 41.18298-40.500389 41.524276H942.205142a41.41051 41.41051 0 0 1-41.069215-41.524276c0-22.753027 18.088657-41.296745 40.500389-41.63804h154.834352z m0-183.389401c22.753027 0 41.18298 18.657483 41.18298 41.63804 0 22.753027-18.088657 41.296745-40.500389 41.63804H834.242027a41.41051 41.41051 0 0 1-41.069215-41.63804c0-22.753027 17.974892-41.296745 40.386624-41.63804h262.911232z" p-id="26205" fill="#8a8a8a"></path></svg>