<?xml version="1.0" standalone="no"?><!DOCTYPE svg PUBLIC "-//W3C//DTD SVG 1.1//EN" "http://www.w3.org/Graphics/SVG/1.1/DTD/svg11.dtd"><svg t="1771250405720" class="icon" viewBox="0 0 1024 1024" version="1.1" xmlns="http://www.w3.org/2000/svg" p-id="19036" xmlns:xlink="http://www.w3.org/1999/xlink" width="64" height="64"><path d="M68.139 394.048h138.987c17.664 0 32-14.315 32-32s-14.336-32-32-32h-69.525C202.54 189.781 343.126 98.133 500.588 98.133c220.757 0 400.341 179.627 400.341 400.448 0 17.685 14.336 32 32 32s32-14.315 32-32C964.908 242.474 756.63 34.133 500.588 34.133c-167.467 0-318.4 89.387-400.448 229.611V130.112c0-17.685-14.336-32-32-32s-32 14.315-32 32v231.936c0 17.664 14.336 32 32 32z m864.874 195.861H794.026c-17.664 0-32 14.336-32 32 0 17.685 14.336 32 32 32h75.307c-61.845 146.176-207.595 245.077-368.768 245.077-220.757 0-400.363-179.627-400.363-400.427 0-17.685-14.336-32-32-32s-32 14.315-32 32c0 256.085 208.32 464.427 464.363 464.427 166.059 0 318.229-90.453 400.448-229.525v120.384c0 17.685 14.336 32 32 32s32-14.315 32-32V621.909c0-17.664-14.336-32-32-32zM623.339 487.936c17.664 0 32-14.315 32-32s-14.336-32-32-32h-64.256l70.379-66.24c12.885-12.117 13.483-32.363 1.344-45.248s-32.363-13.44-45.227-1.365l-77.12 72.619-77.141-72.619c-12.885-12.075-33.109-11.52-45.227 1.365s-11.52 33.131 1.344 45.248l70.379 66.24h-67.541c-17.664 0-32 14.315-32 32s14.336 32 32 32h86.784v60.352h-86.784c-17.664 0-32 14.336-32 32 0 17.685 14.336 32 32 32h86.784v84.544c0 17.685 14.336 32 32 32s32-14.315 32-32v-84.544h82.261c17.664 0 32-14.315 32-32 0-17.664-14.336-32-32-32h-82.261v-60.352h82.283z" p-id="19037" fill="#8a8a8a"></path></svg>